<?xml version="1.0" encoding="UTF-8"?><svg xmlns="http://www.w3.org/2000/svg" xmlns:xlink="http://www.w3.org/1999/xlink" viewBox="0 0 1766.55 1238.08"><defs><style>.d{fill:#ffd773;}.e{fill:#39666b;}.f{fill:#381924;}.g{fill:#71ba71;}.h{fill:#9bb795;}.i{fill:#fff;}.j,.k{fill:#fcffe9;}.j,.l,.m{fill-rule:evenodd;}.n{fill:#3b2d4f;}.o{fill:#c7d5ea;}.p{fill:#dd995b;}.q{fill:#b76418;}.r{fill:#ffaf9c;}.s{opacity:.5;}.t{fill:#f2cab6;}.u{fill:#843950;}.v{fill:#2f253f;}.w{fill:#eaa260;}.x{fill:#3a4654;}.y{fill:#d0dae2;}.a`{fill:#fc8a2d;}.aa{fill:#d8d5d4;}.ab{fill:#537041;}.ac{fill:#b0d3a9;}.ad{fill:#aac0f9;}.ae{fill:#ffbe88;}.af{fill:#f4bb67;}.ag{fill:#ffd18d;}.ah{fill:#ffd0b0;}.ai{fill:#aa7244;}.aj{fill:#5e64b7;}.ak{fill:#f2d546;}.al{fill:#465366;}.am{fill:#6674c4;}.l,.an{fill:#f4edc6;}.ao{clip-path:url(#b);}.ap{fill:#efb245;}.aq{fill:#ebf4f7;}.ar{fill:#e4eff9;}.as{fill:#919fe2;}.at{fill:#ffe8ca;}.au{fill:#e9f2ff;}.av{fill:#966842;}.aw{fill:#6d3046;}.ax{fill:#384351;}.ay{fill:#b3c5dd;}.b`{fill:#2c353d;}.ba{fill:#c4874e;}.bb{fill:#97a2c6;}.bc{fill:#e8d5af;}.bd{fill:#383a46;}.be{fill:#d78228;}.bf{fill:#9be094;}.bg{fill:#d5e3f7;}.bh{fill:#c5d6ef;}.bi{fill:#ce8757;}.bj{fill:#bc8451;}.bk{fill:#7cce7c;}.bl{fill:#2d5254;}.m{fill:#e57b2c;}.bm{fill:#8084d8;}.bn{fill:#c5d7ff;}.bo{fill:#ffa669;}.bp{fill:#c0d4ff;}</style><clipPath id="b"><path class="q" d="M406.06,1136.06H1654.86c59.54-92.65,94.07-202.89,94.07-321.2,0-328.58-266.36-594.94-594.94-594.94-12.6,0-25.11,.4-37.52,1.17C1007.41,86.23,840.6,0,653.65,0,325.07,0,58.71,266.36,58.71,594.94c0,240.22,142.38,447.18,347.35,541.12Z"/></clipPath></defs><g id="a"><g><g><path class="q" d="M406.06,1136.06H1654.86c59.54-92.65,94.07-202.89,94.07-321.2,0-328.58-266.36-594.94-594.94-594.94-12.6,0-25.11,.4-37.52,1.17C1007.41,86.23,840.6,0,653.65,0,325.07,0,58.71,266.36,58.71,594.94c0,240.22,142.38,447.18,347.35,541.12Z"/><g><path class="q" d="M153.54,272.57V917.28c28.24,43.72,62.05,83.5,100.44,118.33V154.23c-38.39,34.83-72.2,74.62-100.44,118.34Z"/><path class="q" d="M372.38,70.57V1119.29c11.03,5.93,22.25,11.54,33.68,16.77h66.76V27.99c-35,11.15-68.59,25.45-100.44,42.58Z"/><path class="q" d="M653.65,0c-21.08,0-41.91,1.1-62.43,3.24V1136.06h100.44V1.21c-12.57-.79-25.24-1.21-38.01-1.21Z"/><path class="q" d="M810.06,20.79V1136.06h100.44V58.17c-32-15.34-65.58-27.9-100.44-37.38Z"/></g><g><path class="q" d="M691.17,1025.38c-12.41,.77-24.92,1.17-37.52,1.17-300.87,0-549.57-223.34-589.37-513.27-3.67,26.7-5.57,53.96-5.57,81.67,0,240.22,142.38,447.18,347.35,541.12h402.65c-44.02-31.43-83.58-68.7-117.54-110.69Z"/><path class="q" d="M1499.28,1136.06h155.58c59.54-92.65,94.07-202.89,94.07-321.2,0-27.71-1.9-54.97-5.57-81.67-22.77,165.87-113.91,309.94-244.08,402.87Z"/></g><g><path class="q" d="M406.06,1136.06H1654.86c59.54-92.65,94.07-202.89,94.07-321.2,0-328.58-266.36-594.94-594.94-594.94-12.6,0-25.11,.4-37.52,1.17C1007.41,86.23,840.6,0,653.65,0,325.07,0,58.71,266.36,58.71,594.94c0,240.22,142.38,447.18,347.35,541.12Z"/><g class="ao"><g><rect class="q" x="559.84" y="551.07" width="1206.71" height="575.82"/><rect class="q" x="632.73" y="551.07" width="6.86" height="575.82"/><rect class="q" x="807.72" y="551.07" width="6.86" height="575.82"/><rect class="q" x="890.64" y="551.07" width="6.86" height="575.82"/><rect class="q" x="973.57" y="551.07" width="6.86" height="575.82"/><rect class="q" x="1056.5" y="551.07" width="6.86" height="575.82"/><rect class="q" x="1139.43" y="551.07" width="6.86" height="575.82"/><rect class="q" x="1222.35" y="551.07" width="6.86" height="575.82"/><rect class="q" x="1305.28" y="551.07" width="6.86" height="575.82"/><rect class="q" x="1388.21" y="551.07" width="6.86" height="575.82"/><rect class="q" x="1471.13" y="551.07" width="6.86" height="575.82"/><rect class="q" x="1554.06" y="551.07" width="6.86" height="575.82"/><rect class="q" x="1636.99" y="551.07" width="6.86" height="575.82"/><rect class="q" x="559.84" y="628.26" width="1206.71" height="7.07"/><rect class="q" x="559.84" y="701.64" width="1206.71" height="7.07"/><rect class="q" x="559.84" y="775.01" width="1206.71" height="7.07"/><rect class="q" x="559.84" y="848.39" width="1206.71" height="7.07"/><rect class="q" x="559.84" y="921.76" width="1206.71" height="7.07"/><rect class="q" x="559.84" y="995.14" width="1206.71" height="7.07"/><rect class="q" x="559.84" y="1068.51" width="1206.71" height="7.07"/><rect class="q" x="1719.91" y="551.07" width="6.86" height="575.82"/><rect class="q" x="946.1" y="610.4" width="484.29" height="300.86"/><rect class="q" x="559.84" y="551.07" width="1206.71" height="21.86"/><rect class="q" x="490.36" y="118.82" width="1219.67" height="433.19"/><rect class="q" x="490.36" y="118.82" width="993.61" height="433.19"/><rect class="q" x="797.08" y="118.82" width="16.67" height="433.19"/><rect class="q" x="1146.46" y="118.82" width="16.67" height="433.19"/><path class="q" d="M1168.16,774.02l7.19,2.7s1.64-2.87,3.7-7.08c2.85-5.82,6.52-14.21,7.79-21.14,.04-.19,.07-.39,.1-.58,.31-1.87,.44-3.63,.31-5.19-.14-1.64-.55-3.06-1.33-4.16l2.32-5.12,38.9-84.73c.97-2.11,3.41-3.12,5.58-2.3h0c2.18,.82,3.36,3.19,2.68,5.43l-28.55,94.59c-10.46,2.52-17.17,35.67-17.17,35.67l7.19,2.7c1.69,.64,3.57-.29,4.09-2.02l40.46-133.91c.67-2.23-.5-4.61-2.68-5.43l-8.6-3.23c-2.17-.82-4.6,.18-5.58,2.28l-22.77,49.12h0l-35.37,78.18c-.74,1.65,.06,3.58,1.75,4.21Z"/><g><path class="q" d="M1137.85,652.61l-56.26,113.82-3.85-1.9c-2.51-1.24-5.55-.33-6.97,2.08l-15.48,26.39c-1.57,2.67-.54,6.11,2.24,7.48l21.83,10.79c2.88,1.42,6.36,0,7.41-3.04l10.05-29.08c.88-2.54-.27-5.34-2.68-6.53l-4.13-2.04,56.26-113.83c.33-.67,.05-1.48-.61-1.81l-5.99-2.95c-.67-.33-1.48-.05-1.81,.61Zm-73.96,144.57c-.89-.44-1.25-1.52-.81-2.41l10.53-21.31c.44-.89,1.52-1.25,2.41-.82,.89,.44,1.25,1.52,.82,2.41l-10.53,21.31c-.44,.89-1.52,1.25-2.41,.82Zm26.36-17.49c.89,.44,1.25,1.52,.82,2.41l-10.53,21.31c-.44,.89-1.52,1.25-2.41,.82-.89-.44-1.25-1.52-.82-2.41l10.53-21.31c.44-.89,1.52-1.25,2.41-.82Zm-16.83,20.2c-.44,.89-1.52,1.25-2.41,.82-.89-.44-1.25-1.52-.82-2.41l10.53-21.31c.35-.71,1.11-1.08,1.85-.98l1.02,.5c.53,.53,.7,1.36,.35,2.07l-10.53,21.31Z"/><path class="q" d="M1121.78,696.59l-.61-.3c-2.76-1.37-3.91-4.75-2.54-7.51l26.04-53.68c1.37-2.76,4.75-3.91,7.51-2.54l.61,.3c2.76,1.37,3.91,4.75,2.54,7.51l-26.04,53.68c-1.37,2.76-4.75,3.91-7.51,2.54Z"/></g><circle class="q" cx="1210.9" cy="326.44" r="19.01" transform="translate(-32.75 488.24) rotate(-22.5)"/><circle class="q" cx="857.06" cy="326.44" r="19.01" transform="translate(-19.93 594.77) rotate(-37.86)"/><circle class="q" cx="503.23" cy="326.44" r="19.01" transform="translate(69.1 740.37) rotate(-76.61)"/><path class="q" d="M987.24,766.42h0c-1.93-.87-2.79-3.15-1.93-5.08l55.37-123.6c.87-1.93,3.15-2.79,5.08-1.93h0c1.93,.87,2.79,3.15,1.93,5.08l-55.37,123.6c-.87,1.93-3.15,2.79-5.08,1.93Z"/><path class="q" d="M1027.27,688.58l-8.49-3.82,25.33-56.29c1.05-2.34,3.81-3.39,6.15-2.33h0c2.34,1.05,3.39,3.81,2.33,6.15l-25.33,56.29Z"/><path class="q" d="M1033.1,782.22c-7.15,12.64-23.19,17.1-35.84,9.95-12.64-7.15-17.1-23.19-9.95-35.84l45.79,25.88Z"/></g></g></g></g><path class="be" d="M1188.73,183.43c-30.28,0-54.9-24.63-54.9-54.9s24.63-54.9,54.9-54.9,54.9,24.63,54.9,54.9-24.63,54.9-54.9,54.9Zm0-105.38c-27.83,0-50.48,22.65-50.48,50.48s22.65,50.48,50.48,50.48,50.48-22.65,50.48-50.48-22.65-50.48-50.48-50.48Z"/><path class="be" d="M1127.41,199.36c-6.1,0-11.06-4.61-11.06-10.27s4.96-10.27,11.06-10.27,11.06,4.61,11.06,10.27-4.96,10.27-11.06,10.27Zm0-16.12c-3.66,0-6.63,2.98-6.63,6.64s2.98,6.64,6.63,6.64,6.64-2.98,6.64-6.64-2.98-6.64-6.64-6.64Z"/></g></g><g id="c"><g><g><path class="g" d="M143.27,972.05c-3.41,1.76-4.75,5.97-2.99,9.38,1.09,2.12,3.21,3.51,5.6,3.71,.93,13.61-2.9,27.94-4.88,34.3-1.23-1.85-2.2-3.38-3.11-4.88-.85-1.39-1.74-2.79-2.65-4.22-1.69-2.67-3.44-5.42-5.09-8.31-.9-1.56-1.82-3.12-2.76-4.71-1.7-2.89-3.47-5.87-5.12-8.91-.9-1.7-1.83-3.39-2.76-5.1l-1.12-2.06s.04-.08,.05-.12c.05-.17,5.52-20.39,8.66-32.44,1.25,.08,2.5-.18,3.63-.76,3.41-1.76,4.75-5.96,2.99-9.37-1.76-3.41-5.96-4.75-9.37-2.99-3.41,1.76-4.75,5.96-2.99,9.37,.6,1.17,1.52,2.14,2.68,2.81-1.21,4.62-3.52,13.39-7.82,29.35h0c-.54-1.01-1.07-2-1.57-3.03l-1.55-3.07c-1.9-3.77-3.86-7.66-5.64-11.51l-3.4-7.2-3.14-7.13c-1.29-2.81-2.43-5.62-3.54-8.34-.72-1.78-1.44-3.53-2.16-5.21l-.47-1.2c1.72-3.7,7.13-15.32,10.27-22.38,4.88-.78,7.14-6,5.05-10.04-.85-1.65-2.3-2.87-4.07-3.44-1.77-.57-3.65-.41-5.3,.45h0c-3.41,1.76-4.75,5.97-2.99,9.37,.82,1.58,2.23,2.79,3.93,3.37-1.93,4.3-4.85,10.68-8.51,18.54-.87-2.23-1.83-4.69-2.65-6.98-1.22-3.28-2.4-6.62-3.73-10.5-.81-2.28-1.48-4.37-2.06-6.21-.22-.68-.42-1.33-.62-1.94-1.21-3.91-1.9-6.42-2.06-7.02,3.11-1.87,4.28-5.88,2.6-9.15-1.76-3.41-5.96-4.75-9.37-2.99-3.41,1.76-4.75,5.97-2.99,9.37,1.37,2.66,4.3,4.12,7.24,3.66,.22,.9,.82,3.36,1.81,6.95,.2,.67,.4,1.38,.61,2.13,.52,1.84,1.12,3.92,1.84,6.18,.86,2.88,1.95,6.17,3.52,10.68,.95,2.81,2.04,5.73,3.19,8.82,.45,1.2,.91,2.42,1.37,3.68,.41,1.02,.82,2.06,1.24,3.11,1.37,3.45,2.79,7.02,4.39,10.62l.16,.36c-11.29-6.27-25.56-15.27-31.61-19.14,.84-1.92,.79-4.13-.17-5.99-1.76-3.41-5.97-4.75-9.38-2.99-3.41,1.76-4.75,5.96-2.99,9.37,1.76,3.41,5.96,4.75,9.37,3,.41-.21,.8-.48,1.21-.82,6.9,4.4,23.53,14.89,35.29,21.18,.11,.06,.22,.09,.32,.11l4.3,9.39c1.81,4.04,3.89,8.11,5.9,12.04l1.35,2.66c1.57,3.19,3.32,6.33,5.01,9.38,.93,1.69,1.86,3.36,2.77,5.05,1.69,3.08,3.49,6.09,5.23,9,.94,1.58,1.88,3.14,2.78,4.69,.05,.08,.1,.16,.15,.24-9.13-1.64-24.78-8.55-31.56-11.68,.23-1.48,0-2.94-.67-4.24-1.76-3.41-5.97-4.75-9.37-2.99-3.41,1.76-4.75,5.96-3,9.38,1.76,3.41,5.97,4.75,9.38,2.99,.98-.5,1.8-1.22,2.45-2.15,7.55,3.48,25.26,11.28,34.41,12.2,.18,.02,.37,0,.54-.04,.98,1.55,1.97,3.08,2.93,4.58,.93,1.44,1.84,2.85,2.72,4.24,2.02,3.22,4.08,6.15,6.07,8.98l1.41,2.01c.7,.98,1.38,1.94,2.04,2.88,1.58,2.25,3.07,4.37,4.52,6.24l9.88,12.82c.4,.52,1.09,.66,1.66,.37,.06-.03,.12-.07,.17-.11,.58-.43,.71-1.26,.26-1.88l-9.51-13.01c-1.18-1.59-2.37-3.37-3.63-5.26-.85-1.27-1.73-2.59-2.66-3.94-.6-.89-1.24-1.83-1.87-2.75,1.35-3.87,7.02-21.33,5.79-38.14,.2-.07,.4-.15,.59-.25,3.41-1.76,4.75-5.96,2.99-9.37-1.76-3.41-5.97-4.76-9.38-3Z"/><g><path class="bf" d="M273.36,1069l19.19-31.59c-9.75-54.09-41.88-119.07-129.31-172.92,0,0-9.08,40.01-5.69,90.86l33.87,30.11-31.42-6.58c8.93,62.36,39.3,133.58,125.61,167.66,0,0,13.87-36.59,9.86-87.12l-22.1,9.59Z"/><path class="bk" d="M157.55,955.33l33.87,30.11-31.42-6.58c8.93,62.36,39.3,133.58,125.61,167.66l-122.37-282.05s-9.08,40.01-5.69,90.86Z"/><path class="bf" d="M228.16,1097.99l-4.44-33.56c-38.01-33-98.23-60.91-191.53-49.14,0,0,16.49,33.76,48.1,68.09l41.45,2.04-26.2,13.34c42.17,39.36,104.72,72.74,185.87,47.51,0,0-11.1-34.07-42.98-67.81l-10.26,19.53Z"/><path class="bk" d="M80.28,1083.38l41.45,2.04-26.2,13.34c42.17,39.36,104.72,72.74,185.87,47.51L32.19,1015.3s16.49,33.76,48.1,68.09Z"/></g></g><g><path class="j" d="M1569.67,727.74l-62.34-87.85s1.85,11.83-10.95,17.12c-12.8,5.29-43.53-8.43-39.53,15.45,4,23.87-13.16,15.45-16.58,27.27-3.42,11.81,10.32,28.01,10.32,28.01h119.09Z"/><path class="a`" d="M1407.36,716.49h194.86c6.15,0,11.14,4.99,11.14,11.14v58.29c0,.16-.13,.28-.28,.28h-216.57c-.16,0-.28-.13-.28-.28v-58.29c0-6.15,4.99-11.14,11.14-11.14Z"/><path class="m" d="M1613.09,781.23h-216.61c-.15,0-.27-.12-.27-.27v4.98c0,.15,.12,.27,.27,.27h216.61c.15,0,.27-.12,.27-.27v-4.98c0,.15-.12,.27-.27,.27Z"/><path class="m" d="M1602.96,716.49h-58.61c5.74,0,10.4,4.65,10.4,10.4v59.05c0,.15-.12,.27-.27,.27h58.61c.15,0,.27-.12,.27-.27v-59.05c0-5.74-4.65-10.4-10.4-10.4Z"/><polygon class="l" points="1545.55 693.75 1443.27 716.49 1561.69 716.49 1545.55 693.75"/></g><g><path class="v" d="M1166.98,785.48h506.24v323.22h-505.46c-8.62,0-15.62-7-15.62-15.62v-292.77c0-8.19,6.65-14.83,14.83-14.83Z" transform="translate(2825.37 1894.17) rotate(180)"/><path class="n" d="M1042.25,785.48h518.72c8.19,0,14.83,6.65,14.83,14.83v298.18c0,5.64-4.58,10.21-10.21,10.21h-523.34v-323.22h0Z" transform="translate(2618.05 1894.17) rotate(180)"/><g><ellipse class="y" cx="1538.91" cy="868.43" rx="22.08" ry="20.85"/><ellipse class="ar" cx="1536.49" cy="868.43" rx="19.66" ry="20.85"/><path class="y" d="M1525.57,874.32h20.28c2.83,0,5.15-2.32,5.15-5.15h0c0-2.83-2.32-5.15-5.15-5.15h-20.28c-2.83,0-5.15,2.32-5.15,5.15h0c0,2.83,2.32,5.15,5.15,5.15Z"/></g><g><ellipse class="y" cx="1538.91" cy="949.67" rx="22.08" ry="20.85"/><ellipse class="ar" cx="1536.49" cy="949.67" rx="19.66" ry="20.85"/><path class="y" d="M1525.57,955.56h20.28c2.83,0,5.15-2.32,5.15-5.15h0c0-2.83-2.32-5.15-5.15-5.15h-20.28c-2.83,0-5.15,2.32-5.15,5.15h0c0,2.83,2.32,5.15,5.15,5.15Z"/></g><g><path class="y" d="M1516.83,1037c0,11.52,9.89,20.85,22.08,20.85s22.08-9.34,22.08-20.85-9.89-20.85-22.08-20.85-22.08,9.34-22.08,20.85Z"/><path class="ar" d="M1516.83,1037c0,11.52,8.8,20.85,19.66,20.85s19.66-9.34,19.66-20.85-8.8-20.85-19.66-20.85-19.66,9.34-19.66,20.85Z"/><path class="y" d="M1525.57,1042.88h20.28c2.83,0,5.15-2.32,5.15-5.15h0c0-2.83-2.32-5.15-5.15-5.15h-20.28c-2.83,0-5.15,2.32-5.15,5.15h0c0,2.83,2.32,5.15,5.15,5.15Z"/></g><g><rect class="bg" x="1071.23" y="804.99" width="412.74" height="286.41" transform="translate(2555.19 1896.39) rotate(180)"/><rect class="o" x="1071.23" y="804.99" width="89.19" height="286.41" transform="translate(2231.65 1896.39) rotate(180)"/><path class="bb" d="M1100.02,886.23h364.95v-11.09h-353.85c-6.13,0-11.09,4.97-11.09,11.09h0Z"/><path class="bb" d="M1100.02,1012.33h364.95c0,6.12-4.97,11.09-11.09,11.09h-353.85v-11.09h0Z" transform="translate(2564.99 2035.76) rotate(180)"/><path class="bb" d="M1100.02,947.17h364.95c0,6.12-4.97,11.09-11.09,11.09h-353.85v-11.09h0Z" transform="translate(2564.99 1905.43) rotate(180)"/><polygon class="v" points="1058.67 840.56 1058.67 1036.64 1050.45 1029.29 1050.45 834.79 1058.67 840.56"/><g class="s"><polygon class="aq" points="1198.66 804.99 1483.97 804.99 1483.97 1002.09 1198.66 804.99"/><path class="aq" d="M1165.84,804.99c60.52,42.8,267.64,182.94,318.13,217.53v68.88l-412.74-286.41h94.61Z"/></g><path class="y" d="M1058.67,826.95v13.61c-7.27,0-13.19,5.92-13.19,13.19v156.46c0,7.27,5.91,13.19,13.19,13.19v13.61c-14.77,0-26.8-12.02-26.8-26.8v-156.46c0-14.77,12.02-26.8,26.8-26.8Z"/></g><polygon class="ay" points="1100.49 1023.43 1160.89 1040.84 1160.89 1023.53 1100.49 1023.43"/><polygon class="ay" points="1100.02 886.12 1160.42 903.54 1160.42 886.23 1100.02 886.12"/><polygon class="ay" points="1100.02 958.43 1160.42 975.84 1160.42 958.53 1100.02 958.43"/><rect class="v" x="1502.92" y="785.48" width="3.73" height="322.59"/></g><g><path class="e" d="M891.32,681.84c-10.87-15.41-28.55-24.58-47.41-24.58h-213.17c-15.65,0-30.99,4.38-44.29,12.65l-182.2,113.3-103.91-150.74-70.95,40.54c-8.41,4.81-10.93,15.76-5.47,23.76l144.33,211.21c6.05,8.85,17.61,12.04,27.34,7.53l180.11-83.44c1.85,13.79,6.4,27.2,13.51,39.44l14.45,24.85-18.61,211.7h303.3c10.85,0,19.41-9.24,18.58-20.06l-17.91-234.16,146.86,193.63c4.94,6.51,14.1,8.04,20.88,3.49l64.44-43.25-229.88-325.87Z"/><path class="bl" d="M905.62,1070.92c-2.76,6.79-9.41,11.64-17.28,11.64h-301.05l-2.24,25.51h303.3c10.85,0,19.41-9.24,18.58-20.06l-1.31-17.09Z"/><path class="u" d="M637.96,596.12h-21.93c-23.45,0-42.47-19.01-42.47-42.47v-58.8c0-71.39,57.87-129.27,129.27-129.27h0c71.39,0,129.27,57.87,129.27,129.27v96.6c0,19.07-15.46,34.53-34.53,34.53h-52.27l-107.33-29.87Z"/><path class="aw" d="M702.82,588.65h0c-65.37,0-119.4-48.53-128.05-111.53-.8,5.8-1.22,11.72-1.22,17.73v58.8c0,23.45,19.01,42.47,42.47,42.47h21.93l107.33,29.87h52.27c19.07,0,34.53-15.46,34.53-34.53v-96.6c0-6.02-.42-11.94-1.22-17.73-8.64,63-62.67,111.53-128.05,111.53Z"/><path class="ah" d="M771.19,499.56h3.77c18.48,0,33.46,14.98,33.46,33.46h0c0,18.48-14.98,33.46-33.46,33.46h-2.09v103.48c0,27.73-22.48,50.21-50.21,50.21h0c-32.06,0-55.91-29.64-49.04-60.96l9.32-42.54h0c-40.43,0-73.2-32.77-73.2-73.2v-66.92l46.54-.31c24.29-.16,43.9-19.9,43.9-44.19v-19.18l16.01,33.46c4.95,10.35,15.41,16.94,26.88,16.94h0c6.89,0,12.48,5.59,12.48,12.48v7.65c0,8.72,6.92,15.87,15.64,16.15h0Z"/><circle class="f" cx="704.8" cy="511.96" r="11.62"/><circle class="f" cx="627.72" cy="511.96" r="11.62"/><polygon class="r" points="682.94 616.68 745.77 616.68 676.01 648.27 682.94 616.68"/><path class="r" d="M660.25,544.49h0c3.58,0,6.51-2.93,6.51-6.51v-13.94c0-3.58-2.93-6.51-6.51-6.51h0c-3.58,0-6.51,2.93-6.51,6.51v13.94c0,3.58,2.93,6.51,6.51,6.51Z"/><path class="aw" d="M619.5,488.58h16.19c2.43,0,4.62-1.76,4.85-4.18,.26-2.74-1.91-5.07-4.6-5.07h-16.19c-2.43,0-4.62,1.76-4.85,4.18-.26,2.74,1.91,5.07,4.6,5.07Z"/><path class="aw" d="M696.58,488.58h16.19c2.43,0,4.62-1.76,4.85-4.18,.26-2.74-1.91-5.07-4.6-5.07h-16.19c-2.43,0-4.62,1.76-4.85,4.18-.26,2.74,1.91,5.07,4.6,5.07Z"/><circle class="r" cx="776.08" cy="534.56" r="19.34"/><circle class="i" cx="772.86" cy="564.66" r="6.52"/><polygon class="an" points="674.18 322.73 651.88 376.13 823.27 447.7 843.77 398.61 674.18 322.73"/><path class="k" d="M656.88,308.43h0c-3.38,8.1-.81,17.45,6.24,22.68l152.18,112.97c9.96,7.39,24.21,3.47,28.99-7.97l17.57-42.08c9.34-22.36-1.22-48.05-23.57-57.38l-124.02-51.79c-22.36-9.34-48.05,1.22-57.38,23.57Z"/><path class="an" d="M824.01,426.04l-152.18-112.97c-5.26-3.91-8.03-10.12-7.68-16.39-2.95,3.42-5.43,7.36-7.27,11.76h0c-3.38,8.1-.81,17.45,6.24,22.68l152.18,112.97c9.96,7.39,24.21,3.47,28.99-7.97l5.26-12.59c-6.35,7.03-17.38,8.57-25.54,2.52Z"/><polygon class="bc" points="661.94 352.04 786.56 422.75 668.89 335.4 661.94 352.04"/><path class="k" d="M857.06,1108.07l-25.28-321.95c-.49-6.27-5.73-11.11-12.02-11.11h-238.24l-4.39,20.46c-5.57,25.97-1.26,53.08,12.08,76.04l14.44,24.85-18.61,211.7h272.01Z"/><polygon class="an" points="581.52 775.01 649.87 657.27 661.95 657.27 594.32 775.01 581.52 775.01"/><polygon class="an" points="818.2 775.01 794.31 657.27 782.22 657.27 805.4 775.01 818.2 775.01"/><path class="an" d="M775.77,984.41c0,41.24-33.43,74.67-74.67,74.67s-74.67-33.43-74.67-74.67h149.33Z"/><path class="bl" d="M300.34,632.47l-13.64-19.56-62.43,35.33c-3.63,2.05-4.78,6.74-2.52,10.24l8.95,13.85,69.64-39.86Z"/><polygon class="bl" points="404.25 783.21 427.02 817.93 421.37 772.57 404.25 783.21"/><polygon class="an" points="847.81 990.26 899.79 990.26 900.22 1000.26 848.6 1000.26 847.81 990.26"/><path class="bl" d="M1121.19,1007.71l13.07,18.36-54.83,35.89c-3.14,2.05-7.32,1.4-9.68-1.52l-9.53-11.8,60.97-40.92Z"/><path class="ak" d="M1137.37,1029.8l-44.24,30.71c-2.52,1.75-3.1,5.24-1.28,7.72l29.34,39.84h132.53c0-17.64-12.89-32.62-30.32-35.27l-59.9-9.09-26.13-33.91Z"/><path class="ap" d="M1162.26,1087.66h-10.58c9.79,0,17.73,7.94,17.73,17.73v2.67h10.58v-2.67c0-9.79-7.94-17.73-17.73-17.73Z"/><polygon class="r" points="1134.26 1026.07 1137.37 1029.8 1093.72 1060.11 1090.36 1054.8 1134.26 1026.07"/><polygon class="r" points="234.72 642.63 228.89 635.63 272.54 605.32 281.11 616.38 234.72 642.63"/><path class="ak" d="M228.89,635.63l47.17-27.76c2.32-1.36,2.94-4.43,1.35-6.59l-32.34-43.92H112.54c0,17.64,12.89,32.62,30.32,35.27l59.9,9.09,26.13,33.91Z"/><polygon class="bl" points="889.02 853.84 852.71 804.87 894.07 919.91 889.02 853.84"/><circle class="f" cx="582.67" cy="783.09" r="5.29"/><circle class="f" cx="812.91" cy="783.09" r="5.29"/><path class="i" d="M687.71,556.05c0,11.57-9.38,20.96-20.95,20.96s-20.96-9.38-20.96-20.96h41.91Z"/><polygon class="ap" points="245.07 557.36 112.54 557.36 112.54 557.36 252.51 567.46 245.07 557.36"/></g><g><path class="ae" d="M152.08,442.75s22.5,16.64,42.91-15.91l11.14,10.08,9.62-13.51s17.6,20.37,43.09-.4l6.93,12,13.89-8.99s17.64,29.25,42.96,14.66l6.77,37.41-18.56,39.46H174.32l-29.16-47.27,6.92-27.53Z"/><path class="w" d="M322.62,440.68c-1.23,20.8-10.49,36.96-21.73,36.96-12.08,0-21.87-18.66-21.87-41.68,0-3.43,.22-6.76,.63-9.94-6.71-1.34-13.66-2.35-20.82-3.01-1.73,19.72-10.72,34.75-21.56,34.75s-19.71-14.83-21.53-34.35c-7.15,.8-14.09,1.95-20.76,3.42,.34,2.94,.53,5.99,.53,9.13,0,23.02-9.79,41.68-21.87,41.68-10.87,0-19.88-15.1-21.58-34.89-24.35,13.71-39.54,33.1-39.54,54.59,0,41.55,56.74,35.53,126.73,35.53s126.73,6.02,126.73-35.53c0-22.6-16.79-42.87-43.37-56.66Z"/><g><path class="p" d="M279.66,426.02c-.14-.03-.29-.05-.43-.08,.05,.75,.11,1.49,.19,2.22,.07-.72,.15-1.44,.24-2.14Z"/><path class="bi" d="M239.27,517.24c-65.41,0-119.24,5.25-126.01-27.97-.48,2.65-.72,5.34-.72,8.07,0,41.55,56.74,35.53,126.73,35.53s126.73,6.02,126.73-35.53c0-2.72-.25-5.41-.73-8.06-6.78,33.21-60.6,27.96-126,27.96Z"/><path class="p" d="M195.27,426.78c-.09,.02-.18,.04-.27,.06,.05,.45,.09,.9,.14,1.35,.05-.47,.09-.94,.13-1.41Z"/></g><path class="ag" d="M45.53,439.79s23.76,17.58,45.33-16.81l11.76,10.65,10.16-14.27s18.59,21.52,45.51-.43l7.32,12.67,14.67-9.49s18.63,30.9,45.38,15.49l7.15,39.51-19.6,41.67H69.02l-30.8-49.92,7.31-29.08Z"/><path class="af" d="M225.66,437.61c-1.3,21.97-11.07,39.04-22.95,39.04-12.76,0-23.1-19.71-23.1-44.02,0-3.62,.23-7.14,.67-10.5-7.08-1.41-14.43-2.48-21.99-3.18-1.83,20.83-11.33,36.71-22.77,36.71s-20.81-15.66-22.73-36.28c-7.55,.84-14.88,2.06-21.92,3.62,.36,3.1,.56,6.33,.56,9.64,0,24.31-10.34,44.02-23.1,44.02-11.48,0-20.99-15.95-22.79-36.86-25.72,14.48-41.77,34.96-41.77,57.66,0,43.88,59.93,37.52,133.85,37.52s133.85,6.36,133.85-37.52c0-23.87-17.74-45.28-45.81-59.84Z"/><g><path class="p" d="M180.28,422.12c-.15-.03-.3-.05-.45-.08,.06,.79,.12,1.57,.2,2.35,.08-.76,.16-1.52,.25-2.26Z"/><path class="p" d="M137.62,518.47c-69.08,0-125.94,5.55-133.09-29.54-.5,2.8-.76,5.64-.76,8.52,0,43.88,59.93,37.52,133.85,37.52s133.85,6.36,133.85-37.52c0-2.88-.26-5.72-.77-8.51-7.16,35.08-64.01,29.53-133.08,29.53Z"/><path class="p" d="M91.14,422.93c-.09,.02-.19,.04-.29,.06,.06,.47,.1,.95,.15,1.43,.05-.49,.1-.99,.14-1.49Z"/></g><path class="al" d="M0,531.01H368.18c0,14.54-11.8,26.35-26.35,26.35H26.35C11.8,557.36,0,545.55,0,531.01H0Z"/><path class="x" d="M277.09,531.01c0,14.55-11.8,26.35-26.35,26.35h91.09c14.55,0,26.35-11.8,26.35-26.35h-91.09Z"/><path class="i" d="M191.87,355.73h-7.01c-5.51,0-10.35-4.12-10.76-9.62-.02-.27-.03-.54-.03-.81,0-4.79,3.14-8.87,7.46-10.32,5.03-.96,8.87-5.4,8.87-10.7h0c0-5.99-4.9-10.9-10.9-10.9h-33.63c-5.99,0-10.9,4.9-10.9,10.9h0c0,5.99,4.9,10.9,10.9,10.9h13.22c.08,0,.17,.02,.24,.05,3.96,1.64,6.77,5.54,6.77,10.07,0,4.87-3.24,9.02-7.67,10.4-.06,.02-.13,.03-.19,.03h0c-5.99,0-10.9,4.9-10.9,10.9h0c0,5.99,4.9,10.9,10.9,10.9h33.63c5.99,0,10.9-4.9,10.9-10.9h0c0-5.99-4.9-10.9-10.9-10.9Z"/><path class="i" d="M211.11,406.72h-18.67c-5.99,0-10.9-4.9-10.9-10.9h0c0-5.99,4.9-10.9,10.9-10.9h18.67c5.99,0,10.9,4.9,10.9,10.9h0c0,5.99-4.9,10.9-10.9,10.9Z"/><path class="i" d="M203,302.3h-18.67c-5.99,0-10.9-4.9-10.9-10.9h0c0-5.99,4.9-10.9,10.9-10.9h18.67c5.99,0,10.9,4.9,10.9,10.9h0c0,5.99-4.9,10.9-10.9,10.9Z"/><path class="i" d="M156.04,280.5h-5c-5.99,0-10.9-4.9-10.9-10.9h0c0-5.99,4.9-10.9,10.9-10.9h5c5.99,0,10.9,4.9,10.9,10.9h0c0,5.99-4.9,10.9-10.9,10.9Z"/><polygon class="i" points="302.86 369.47 316.12 365.59 312.24 378.85 316.12 392.12 302.86 388.23 289.59 392.12 293.48 378.85 289.59 365.59 302.86 369.47"/><polygon class="i" points="309.46 587.11 322.73 583.23 318.84 596.49 322.73 609.76 309.46 605.87 296.19 609.76 300.08 596.49 296.19 583.23 309.46 587.11"/><polygon class="i" points="347.94 419.31 357.32 416.56 354.57 425.94 357.32 435.32 347.94 432.57 338.56 435.32 341.3 425.94 338.56 416.56 347.94 419.31"/><polygon class="i" points="180.28 616.74 193.35 612.92 189.52 625.98 193.35 639.05 180.28 635.22 167.21 639.05 171.04 625.98 167.21 612.92 180.28 616.74"/><polygon class="i" points="91.14 570.78 100.52 568.03 97.78 577.41 100.52 586.79 91.14 584.05 81.76 586.79 84.51 577.41 81.76 568.03 91.14 570.78"/><polygon class="i" points="385.24 554.3 394.62 551.55 391.87 560.93 394.62 570.31 385.24 567.57 375.86 570.31 378.6 560.93 375.86 551.55 385.24 554.3"/></g><g><path class="ab" d="M801.88,925.4l-5.52-84.5-23.95-.14-5.54,84.75c-.27,4.07-2.22,7.88-5.45,10.38-8.85,6.86-14.59,17.56-14.66,29.55l-.74,125.44c-.06,9.47,7.65,17.27,17.12,17.33l40.92,.24c9.47,.06,17.27-7.65,17.33-17.12l.74-125.44c.07-12.21-5.75-23.15-14.79-30.1-3.24-2.49-5.19-6.31-5.46-10.39Z"/><path class="ab" d="M793.04,850.55l-17.75-.1c-4.66-.03-8.44-3.86-8.42-8.52h0c.03-4.66,3.86-8.44,8.52-8.42l17.75,.1c4.66,.03,8.44,3.86,8.42,8.52h0c-.03,4.66-3.86,8.44-8.51,8.42Z"/><rect class="bo" x="746.43" y="975.19" width="75.37" height="92.96" transform="translate(6.03 -4.6) rotate(.34)"/><rect class="d" x="759.77" y="975.24" width="62.02" height="92.96" transform="translate(5.69 -4.38) rotate(.32)"/><path class="u" d="M802.87,840.76h0c0-5.27-2.9-9.59-6.45-9.59h-24.07c-3.55,0-6.45,4.31-6.45,9.59h36.97Z"/><ellipse class="bo" cx="795.59" cy="1019.27" rx="15.56" ry="24.89"/></g><g><path class="bj" d="M283.8,1034.41h0c-4.63,1.86-9.95-.4-11.81-5.03l-58.03-144.21c-1.86-4.63,.4-9.94,5.03-11.81h0c4.63-1.86,9.94,.4,11.81,5.03l58.03,144.21c1.86,4.63-.4,9.95-5.03,11.81Z"/><path class="av" d="M288.83,1022.6l-28.59-71.04-7.09,31,18.84,46.81c1.86,4.63,7.18,6.9,11.81,5.03,4.63-1.86,6.9-7.18,5.03-11.81Z"/><path class="k" d="M416.28,937.85c-12.85,0-24.46,5.27-32.81,13.75-11.24-19.73-32.45-33.04-56.79-33.04-36.08,0-65.33,29.25-65.33,65.33s29.25,65.33,65.33,65.33c24.33,0,45.54-13.31,56.79-33.04,8.35,8.49,19.97,13.75,32.81,13.75,25.43,0,46.04-20.61,46.04-46.04s-20.61-46.04-46.04-46.04Z"/><path class="an" d="M262.01,974.68c-.43,3.01-.66,6.08-.66,9.21,0,36.08,29.25,65.33,65.33,65.33,24.33,0,45.54-13.31,56.79-33.04,8.35,8.49,19.97,13.75,32.81,13.75,25.43,0,46.04-20.61,46.04-46.04,0-3.16-.32-6.24-.92-9.21h-199.39Z"/><path class="am" d="M279.42,1108.45h129.16c8.89,0,17.56-2.84,24.66-8.19,36.04-27.11,59.34-70.24,59.34-118.81H195.41c0,48.57,23.31,91.7,59.34,118.81,7.1,5.34,15.77,8.19,24.66,8.19Z"/><path class="aj" d="M344,1090.12c-63.8,0-119.07-33.13-146.09-81.46,6.9,37.28,27.71,69.68,56.85,91.6,7.1,5.34,15.77,8.19,24.66,8.19h129.16c8.89,0,17.56-2.84,24.66-8.19,29.14-21.92,49.95-54.32,56.85-91.6-27.02,48.33-82.29,81.46-146.09,81.46Z"/></g><g><path class="t" d="M897.24,1067.54c-1.76-18.03-14.43-32.02-29.8-32.02s-28.04,13.99-29.8,32.02h59.6Z"/><path class="t" d="M955.8,1067.54c-1.76-18.03-14.43-32.02-29.8-32.02s-28.04,13.99-29.8,32.02h59.6Z"/><path class="at" d="M868.79,1067.54c-1.76-18.03-14.43-32.02-29.8-32.02s-28.04,13.99-29.8,32.02h59.6Z"/><path class="h" d="M811.74,1087.05c4.76,12.47,15.17,21.12,27.26,21.12s22.51-8.66,27.26-21.12h-54.52Z"/><path class="at" d="M927.04,1067.54c-1.76-18.03-14.43-32.02-29.8-32.02s-28.04,13.99-29.8,32.02h59.6Z"/><path class="h" d="M869.98,1087.05c4.76,12.47,15.17,21.12,27.26,21.12s22.51-8.66,27.26-21.12h-54.52Z"/><path class="at" d="M985.28,1067.54c-1.76-18.03-14.43-32.02-29.8-32.02s-28.04,13.99-29.8,32.02h59.6Z"/><path class="h" d="M928.22,1087.05c4.76,12.47,15.17,21.12,27.26,21.12s22.51-8.66,27.26-21.12h-54.52Z"/><path class="ac" d="M980.03,1100.06h-163.75c-4.3,0-7.92-3.23-8.41-7.5l-2.89-25.02h186.35l-2.89,25.02c-.49,4.27-4.11,7.5-8.41,7.5Z"/><polygon class="h" points="988.84 1089.11 991.33 1067.54 804.98 1067.54 807.47 1089.11 988.84 1089.11"/><path class="ac" d="M994.62,1082.05h-191.43c-4.56,0-8.4-3.38-8.99-7.9l-2.73-21.12h214.87l-2.73,21.12c-.58,4.52-4.43,7.9-8.99,7.9Z"/></g><g><rect class="ax" x="148.13" y="1136.06" width="1525.1" height="102.02"/><rect class="al" x="148.13" y="1136.06" width="1087.93" height="102.02"/><rect class="ax" x="148.13" y="1136.06" width="1525.1" height="40.52"/><rect class="b`" x="1236.06" y="1136.06" width="437.16" height="40.52"/><path class="al" d="M152.29,1108.07H1670.27c21.94,0,39.75,17.81,39.75,39.75v16.24H112.54v-16.24c0-21.94,17.81-39.75,39.75-39.75Z"/><path class="ax" d="M1672.92,1108.07h-522.17c20.49,0,37.1,16.61,37.1,37.1v18.89h522.17v-18.89c0-20.49-16.61-37.1-37.1-37.1Z"/></g><g><rect class="aa" x="1427.26" y="928.01" width="14.68" height="17.56"/><path class="bd" d="M1446.5,848.39h-17.09c-2.53,0-4.59,2.05-4.59,4.59v77.95c0,1.05,.85,1.91,1.91,1.91h15.82c1.05,0,1.91-.85,1.91-1.91v-68.21h2.05c3.96,0,7.16-3.21,7.16-7.16s-3.21-7.16-7.16-7.16Z"/><rect class="aa" x="1390.24" y="928.01" width="14.68" height="17.56"/><path class="ba" d="M1494.42,1108.37h-128.07v-155.69c0-6.16,5-11.16,11.16-11.16h82.18c4.75,0,8.8,3.45,9.54,8.15l25.18,158.7Z"/><path class="ai" d="M1459.69,941.52h-17.22l26.48,166.85h25.47l-25.18-158.7c-.74-4.69-4.79-8.15-9.54-8.15Z"/><path class="bd" d="M1409.48,848.39h-17.09c-2.53,0-4.59,2.05-4.59,4.59v77.95c0,1.05,.85,1.91,1.91,1.91h15.82c1.05,0,1.91-.85,1.91-1.91v-68.21h2.05c3.96,0,7.16-3.21,7.16-7.16s-3.21-7.16-7.16-7.16Z"/></g><g><polygon class="bp" points="490.36 912.16 490.36 902.59 551.1 902.59 573.69 919.94 498.76 919.94 490.36 912.16"/><polygon class="bm" points="482.78 934.72 473.69 919.94 490.36 902.59 507.02 919.94 482.78 934.72"/><rect class="as" x="473.69" y="919.94" width="66.66" height="187.55"/><path class="ad" d="M490.36,902.59v-2.23c0-2.92,2.37-5.28,5.28-5.28h49.99c2.92,0,5.28,2.37,5.28,5.28v2.23h-60.56Z"/><path class="bh" d="M531.84,958.62c-18.55-.55-24.82,26.45-24.82,26.45h-33.33v122.43h66.66v-146.23c-2.48-1.54-5.24-2.55-8.51-2.64Z"/><rect class="ad" x="507.02" y="919.94" width="66.66" height="187.55"/><path class="au" d="M531.84,958.62c-18.55-.55-24.82,26.45-24.82,26.45v122.43h66.66v-119.49c-20.38,0-23.29-28.83-41.84-29.38Z"/></g><g><path class="be" d="M888.99,236.12h85.48c17.53,0,31.87,14.34,31.87,31.87v59.41c0,17.53-14.34,31.87-31.87,31.87h-45.79l-41.78,30.58c-3.06,2.24-7.2-.71-6.09-4.33l8.04-26.27c-17.45-.07-31.73-14.38-31.73-31.86v-59.41c0-17.53,14.34-31.87,31.87-31.87Z"/><path class="i" d="M913.46,265.69c15-.72,18.61,15.58,18.61,15.58,0,0,3.61-16.3,18.61-15.58,0,0,20.92,1.44,18.03,26.55-2.89,25.1-36.64,42.33-36.64,42.33,0,0-33.76-17.22-36.64-42.33-2.89-25.1,18.03-26.55,18.03-26.55Z"/><g><path class="bn" d="M595.12,410.65c.75-.99,.55-2.4-.44-3.15l-15.82-11.96c-.99-.75-2.4-.55-3.15,.44-.75,.99-.55,2.4,.44,3.15l15.82,11.96c.99,.75,2.4,.55,3.15-.44Z"/><path class="bn" d="M573.81,394.54c.75-.99,.55-2.4-.44-3.15l-3.6-2.72c-.99-.75-2.4-.55-3.15,.44-.75,.99-.55,2.4,.44,3.15l3.6,2.72c.99,.75,2.4,.55,3.15-.44Z"/><path class="bn" d="M601.82,396.73c.49-.64,.61-1.53,.24-2.31l-8.06-17.17c-.53-1.12-1.87-1.61-2.99-1.08-1.12,.53-1.61,1.87-1.08,2.99l8.06,17.17c.53,1.12,1.87,1.61,2.99,1.08,.34-.16,.62-.4,.84-.68Z"/><path class="bn" d="M613.57,381.18c.4-.53,.56-1.22,.39-1.91l-1.69-6.71c-.3-1.2-1.53-1.93-2.73-1.63-1.21,.3-1.93,1.53-1.63,2.73l1.69,6.71c.3,1.2,1.53,1.93,2.73,1.63,.52-.13,.95-.43,1.24-.82Z"/><path class="bn" d="M584.65,419.44c.21-.28,.36-.62,.42-.99,.2-1.23-.63-2.38-1.85-2.58l-18.72-3.08c-1.23-.2-2.38,.63-2.58,1.85-.2,1.23,.63,2.38,1.85,2.58l18.72,3.08c.85,.14,1.67-.22,2.16-.86Z"/><path class="bn" d="M572.89,434.99c.3-.39,.47-.89,.45-1.42-.04-1.24-1.07-2.22-2.31-2.18l-6.92,.2c-1.24,.04-2.22,1.07-2.18,2.31,.04,1.24,1.07,2.22,2.31,2.18l6.92-.2c.71-.02,1.33-.37,1.73-.89Z"/></g></g></g></g></svg>