<svg xmlns="http://www.w3.org/2000/svg" viewBox="0 0 219.91 477.11"><defs><style>.cls-1{fill:#d78229;}.cls-2{fill:#fff;}.cls-3{fill:#070808;opacity:0.12;isolation:isolate;}</style></defs><g id="Layer_2" data-name="Layer 2"><g id="Layer_3" data-name="Layer 3"><path d="M274,157.87l-41.53.49a26,26,0,0,0-22.13,24.17Q210.16,395,210,607.38a29.73,29.73,0,0,0,9.53,19.75,29.18,29.18,0,0,0,16.34,7.15H411.17a30.95,30.95,0,0,0,18.72-26.22V179.47A26.29,26.29,0,0,0,423.6,166a26.82,26.82,0,0,0-15.9-8.49l-41.17-.38c1.69,4.87.7,10.07-2.59,13.36a12.14,12.14,0,0,1-7.62,3.36l-72.13.47a14.92,14.92,0,0,1-6.64-4.23C273.14,165.17,273.84,158.92,274,157.87Z" transform="translate(-209.98 -157.17)"/></g><path class="cls-1" d="M282.87,314.48H405.1q-10.89,39.69-21.77,79.37l-7.39-.54c-.48-.84-5.77-9.81-13.5-9.73a10.74,10.74,0,0,0-7.39,2.66c-1.62,1.48-1.82,2.66-3.13,4.19-1.51,1.78-4.2,3.68-9.35,3.79a14.59,14.59,0,0,1-8.74-2.93c-1.89-1.46-2.05-2.36-4.49-4.19-2-1.5-4.29-3.23-7.35-3.35a11.54,11.54,0,0,0-6.77,2.33c-3.25,2.09-3.53,3.8-6.25,5.6a13.09,13.09,0,0,1-7.8,2.07,9.42,9.42,0,0,1-6.52-1.14c-2.28-1.4-2.39-2.93-5.39-5.32a15.54,15.54,0,0,0-5.68-3.07,11.81,11.81,0,0,0-7.94.39c-3.48,1.56-3.7,3.94-7.37,6.76a18.29,18.29,0,0,1-7.86,3.51Q271.65,354.68,282.87,314.48Z" transform="translate(-209.98 -157.17)"/><path class="cls-1" d="M305.13,305.86h84c-.36-4.54-1.8-16.22-9.44-26.8a38.79,38.79,0,0,0-29.22-16.52c.15-3.55-1.55-6-2.83-6.06s-3.13,2.41-3,6.06c-3.52.25-15.31,1.62-25.77,12.81C307.8,287.09,305.61,301.83,305.13,305.86Z" transform="translate(-209.98 -157.17)"/><ellipse class="cls-2" cx="152.23" cy="123.99" rx="7.91" ry="9.44"/><path class="cls-1" d="M307.85,294l-41.48-6.56,44.15.07" transform="translate(-209.98 -157.17)"/><path class="cls-1" d="M320.84,273.27,303,269.73h22.11" transform="translate(-209.98 -157.17)"/><polyline class="cls-1" points="65.52 183.7 25.44 178.75 67.33 178.75"/><polyline class="cls-1" points="60.34 202.22 7.09 202.22 58.88 207.47"/><ellipse class="cls-1" cx="75.23" cy="242.9" rx="6.74" ry="8.04"/><ellipse class="cls-1" cx="148.16" cy="242.9" rx="6.74" ry="8.04"/><path class="cls-3" d="M291.15,330l-.21,0c17.46-.12,32.47-.65,44.41-1.25,17.81-.9,27.3-1.85,38.7-4.46a175.13,175.13,0,0,0,17.87-5.11,35.92,35.92,0,0,1-3.84,8.78,30,30,0,0,1-12.7,11.58,55.29,55.29,0,0,1-11.49,4.89,46.83,46.83,0,0,1-16.62,1.5,66.51,66.51,0,0,0,18-6.3,70.71,70.71,0,0,0,8.6-5.27l9.93-8.93a210.9,210.9,0,0,1-35,6.66,208.85,208.85,0,0,1-54-1.46Z" transform="translate(-209.98 -157.17)"/><path class="cls-2" d="M256.2,449.26l-5.64-23.79h4.88L259,441.81l4.31-16.34H269l4.14,16.62,3.63-16.62h4.79l-5.73,23.79h-5.06l-4.7-17.78-4.68,17.78Z" transform="translate(-209.98 -157.17)"/><path class="cls-2" d="M283,437.51a15.24,15.24,0,0,1,1.08-6.1,11.22,11.22,0,0,1,2.2-3.26,9.11,9.11,0,0,1,3-2.14,12.84,12.84,0,0,1,5.09-.94,11.06,11.06,0,0,1,8.35,3.26q3.14,3.26,3.13,9.07t-3.11,9a10.94,10.94,0,0,1-8.31,3.25,11.08,11.08,0,0,1-8.37-3.23Q283,443.19,283,437.51Zm4.91-.16q0,4,1.85,6.12a6,6,0,0,0,4.71,2.09,5.93,5.93,0,0,0,4.67-2.07q1.83-2.07,1.83-6.2c0-2.73-.59-4.76-1.78-6.11a6.55,6.55,0,0,0-9.47,0C288.52,432.57,287.92,434.61,287.92,437.35Z" transform="translate(-209.98 -157.17)"/><path class="cls-2" d="M309.6,425.47h4.77v12.89a27,27,0,0,0,.17,4,3.88,3.88,0,0,0,1.46,2.34,5.06,5.06,0,0,0,3.15.89,4.77,4.77,0,0,0,3.06-.84,3.32,3.32,0,0,0,1.24-2.05,26.88,26.88,0,0,0,.21-4V425.47h4.76V438a33.21,33.21,0,0,1-.38,6,6.74,6.74,0,0,1-1.43,3,7.19,7.19,0,0,1-2.78,1.94,12,12,0,0,1-4.54.72,13.13,13.13,0,0,1-5.13-.78,7.45,7.45,0,0,1-2.76-2.05,6.56,6.56,0,0,1-1.33-2.63,28.56,28.56,0,0,1-.47-6Z" transform="translate(-209.98 -157.17)"/><path class="cls-2" d="M332.24,441.52l4.64-.46a5.68,5.68,0,0,0,1.7,3.46,5.07,5.07,0,0,0,3.45,1.1,5.24,5.24,0,0,0,3.47-1,2.92,2.92,0,0,0,1.17-2.29,2.17,2.17,0,0,0-.49-1.44,4,4,0,0,0-1.72-1c-.55-.19-1.83-.54-3.81-1a12.9,12.9,0,0,1-5.38-2.35,6.21,6.21,0,0,1-2.18-4.79,6.11,6.11,0,0,1,1-3.4,6.4,6.4,0,0,1,2.94-2.4,11.64,11.64,0,0,1,4.65-.83q4.44,0,6.69,2a6.93,6.93,0,0,1,2.36,5.24l-4.77.21a4,4,0,0,0-1.31-2.63,4.75,4.75,0,0,0-3-.81,5.43,5.43,0,0,0-3.25.86,1.73,1.73,0,0,0-.76,1.48,1.84,1.84,0,0,0,.71,1.44,12.39,12.39,0,0,0,4.38,1.59,23,23,0,0,1,5.15,1.72,6.6,6.6,0,0,1,2.61,2.41,7.19,7.19,0,0,1,.94,3.79,7.07,7.07,0,0,1-1.13,3.83,6.74,6.74,0,0,1-3.19,2.65,13.26,13.26,0,0,1-5.14.87q-4.47,0-6.87-2.09A9.05,9.05,0,0,1,332.24,441.52Z" transform="translate(-209.98 -157.17)"/><path class="cls-2" d="M355.46,449.26V425.47h4.77v9.36h9.34v-9.36h4.77v23.79h-4.77v-10.4h-9.34v10.4Z" transform="translate(-209.98 -157.17)"/><path class="cls-2" d="M379.23,425.47H384v12.89a26.49,26.49,0,0,0,.18,4,3.86,3.86,0,0,0,1.45,2.34,5.06,5.06,0,0,0,3.15.89,4.73,4.73,0,0,0,3.06-.84,3.27,3.27,0,0,0,1.24-2.05,26.88,26.88,0,0,0,.21-4V425.47h4.77V438a32.08,32.08,0,0,1-.39,6,6.63,6.63,0,0,1-1.42,3,7.26,7.26,0,0,1-2.78,1.94,12,12,0,0,1-4.54.72,13.06,13.06,0,0,1-5.13-.78,7.29,7.29,0,0,1-2.76-2.05,6.58,6.58,0,0,1-1.34-2.63,29.25,29.25,0,0,1-.47-6Z" transform="translate(-209.98 -157.17)"/></g><g id="Layer_6" data-name="Layer 6"><path class="cls-2" d="M291.51,468.05l1.68.54a3.78,3.78,0,0,1-6.38,1.6,4.49,4.49,0,0,1-1.1-3.2,4.68,4.68,0,0,1,1.11-3.33,3.8,3.8,0,0,1,2.91-1.18,3.57,3.57,0,0,1,2.56.93,3.34,3.34,0,0,1,.88,1.58l-1.72.41a1.8,1.8,0,0,0-.63-1,1.82,1.82,0,0,0-1.18-.39,2,2,0,0,0-1.55.68,3.42,3.42,0,0,0-.59,2.23,3.64,3.64,0,0,0,.58,2.32,1.92,1.92,0,0,0,1.53.69,1.75,1.75,0,0,0,1.19-.44A2.58,2.58,0,0,0,291.51,468.05Z" transform="translate(-209.98 -157.17)"/><path class="cls-2" d="M294.29,468a3.34,3.34,0,0,1,.4-1.58,2.79,2.79,0,0,1,1.15-1.18,3.39,3.39,0,0,1,1.65-.4,3.11,3.11,0,0,1,2.32.92,3.44,3.44,0,0,1,0,4.65,3.08,3.08,0,0,1-2.29.93,3.75,3.75,0,0,1-1.64-.38,2.71,2.71,0,0,1-1.18-1.14A3.77,3.77,0,0,1,294.29,468Zm1.69.09a2,2,0,0,0,.44,1.42,1.44,1.44,0,0,0,2.16,0,2.11,2.11,0,0,0,.44-1.43,2.07,2.07,0,0,0-.44-1.41,1.44,1.44,0,0,0-2.16,0A2,2,0,0,0,296,468.1Z" transform="translate(-209.98 -157.17)"/><path class="cls-2" d="M301.88,465h1.52v.85a2.42,2.42,0,0,1,1.93-1,2,2,0,0,1,1,.25,1.9,1.9,0,0,1,.72.74,2.88,2.88,0,0,1,.89-.74,2.07,2.07,0,0,1,1-.25,2.22,2.22,0,0,1,1.16.28,1.69,1.69,0,0,1,.71.82,3.55,3.55,0,0,1,.17,1.28v4h-1.65v-3.55a2.57,2.57,0,0,0-.17-1.2.78.78,0,0,0-.7-.35,1.12,1.12,0,0,0-.65.21,1.2,1.2,0,0,0-.44.62,4.45,4.45,0,0,0-.13,1.28v3h-1.65V467.8a4.66,4.66,0,0,0-.09-1.17.76.76,0,0,0-.27-.39.82.82,0,0,0-.5-.13,1.27,1.27,0,0,0-.69.2,1.12,1.12,0,0,0-.43.6,4.19,4.19,0,0,0-.14,1.28v3h-1.64Z" transform="translate(-209.98 -157.17)"/><path class="cls-2" d="M312.67,464.15v-1.53h1.65v1.53Zm0,7.06V465h1.65v6.22Z" transform="translate(-209.98 -157.17)"/><path class="cls-2" d="M321.67,471.21H320V468a4.94,4.94,0,0,0-.11-1.31.93.93,0,0,0-.34-.46,1,1,0,0,0-.57-.16,1.37,1.37,0,0,0-.77.23,1.17,1.17,0,0,0-.46.62,5.12,5.12,0,0,0-.13,1.43v2.82H316V465h1.53v.91a2.51,2.51,0,0,1,2.05-1,2.48,2.48,0,0,1,1,.2,1.57,1.57,0,0,1,.68.5,1.68,1.68,0,0,1,.32.69,5.12,5.12,0,0,1,.1,1.11Z" transform="translate(-209.98 -157.17)"/><path class="cls-2" d="M323.18,471.62l1.88.23a.64.64,0,0,0,.22.45,1.22,1.22,0,0,0,.74.18,2.05,2.05,0,0,0,1-.19.82.82,0,0,0,.32-.42,2.53,2.53,0,0,0,.08-.76v-.9a2.22,2.22,0,0,1-1.86,1,2.29,2.29,0,0,1-2-1.06,3.61,3.61,0,0,1-.57-2.08,3.42,3.42,0,0,1,.75-2.39,2.42,2.42,0,0,1,1.87-.83,2.3,2.3,0,0,1,1.91,1V465H329v5.58a5.22,5.22,0,0,1-.19,1.65,2.07,2.07,0,0,1-.51.86,2.19,2.19,0,0,1-.87.48,4.55,4.55,0,0,1-1.39.18,3.59,3.59,0,0,1-2.24-.54,1.72,1.72,0,0,1-.66-1.38Zm1.47-3.65a2.21,2.21,0,0,0,.39,1.45,1.16,1.16,0,0,0,.94.46,1.27,1.27,0,0,0,1-.47,2,2,0,0,0,.42-1.4,2.14,2.14,0,0,0-.4-1.43,1.28,1.28,0,0,0-1-.47,1.19,1.19,0,0,0-1,.46A2.13,2.13,0,0,0,324.65,468Z" transform="translate(-209.98 -157.17)"/><path class="cls-2" d="M333.42,469.44l1.65-.25a1.2,1.2,0,0,0,.43.73,1.46,1.46,0,0,0,.9.24,1.58,1.58,0,0,0,1-.23.52.52,0,0,0,.22-.44.43.43,0,0,0-.12-.31,1.28,1.28,0,0,0-.55-.22,8.74,8.74,0,0,1-2.52-.8,1.59,1.59,0,0,1-.74-1.4,1.72,1.72,0,0,1,.64-1.36,3,3,0,0,1,2-.55,3.45,3.45,0,0,1,1.9.42,2.11,2.11,0,0,1,.85,1.23l-1.55.28a1,1,0,0,0-.38-.55,1.38,1.38,0,0,0-.79-.2,1.83,1.83,0,0,0-.94.18.41.41,0,0,0-.18.34.35.35,0,0,0,.16.3,6.24,6.24,0,0,0,1.54.46,4.59,4.59,0,0,1,1.84.73,1.54,1.54,0,0,1,.51,1.23,1.89,1.89,0,0,1-.71,1.47,3.19,3.19,0,0,1-2.12.61,3.48,3.48,0,0,1-2-.51A2.36,2.36,0,0,1,333.42,469.44Z" transform="translate(-209.98 -157.17)"/><path class="cls-2" d="M340.29,468a3.35,3.35,0,0,1,.41-1.58,2.77,2.77,0,0,1,1.14-1.18,3.42,3.42,0,0,1,1.66-.4,3.1,3.1,0,0,1,2.31.92,3.44,3.44,0,0,1,0,4.65,3.06,3.06,0,0,1-2.29.93,3.68,3.68,0,0,1-1.63-.38,2.66,2.66,0,0,1-1.18-1.14A3.77,3.77,0,0,1,340.29,468Zm1.69.09a2.08,2.08,0,0,0,.44,1.42,1.44,1.44,0,0,0,2.16,0,2.06,2.06,0,0,0,.44-1.43,2,2,0,0,0-.44-1.41,1.44,1.44,0,0,0-2.16,0A2.08,2.08,0,0,0,342,468.1Z" transform="translate(-209.98 -157.17)"/><path class="cls-2" d="M347.62,468a3.35,3.35,0,0,1,.41-1.58,2.77,2.77,0,0,1,1.14-1.18,3.42,3.42,0,0,1,1.66-.4,3.1,3.1,0,0,1,2.31.92,3.44,3.44,0,0,1,0,4.65,3.06,3.06,0,0,1-2.29.93,3.68,3.68,0,0,1-1.63-.38,2.66,2.66,0,0,1-1.18-1.14A3.77,3.77,0,0,1,347.62,468Zm1.69.09a2.08,2.08,0,0,0,.44,1.42,1.44,1.44,0,0,0,2.16,0,2.06,2.06,0,0,0,.44-1.43,2,2,0,0,0-.44-1.41,1.44,1.44,0,0,0-2.16,0A2.08,2.08,0,0,0,349.31,468.1Z" transform="translate(-209.98 -157.17)"/><path class="cls-2" d="M361,471.21h-1.64V468a4.94,4.94,0,0,0-.11-1.31.93.93,0,0,0-.34-.46,1,1,0,0,0-.57-.16,1.37,1.37,0,0,0-.77.23,1.25,1.25,0,0,0-.47.62,5.67,5.67,0,0,0-.12,1.43v2.82h-1.65V465h1.53v.91a2.55,2.55,0,0,1,3-.85,1.57,1.57,0,0,1,.68.5,1.82,1.82,0,0,1,.32.69,5.23,5.23,0,0,1,.09,1.11Z" transform="translate(-209.98 -157.17)"/></g></svg>