<svg id="Capa_1" data-name="Capa 1" xmlns="http://www.w3.org/2000/svg" viewBox="0 0 1897.36 685.7"><defs><style>.cls-1{fill:#555c8a;}.cls-2{fill:#373e68;}.cls-3{fill:#51a5dc;}.cls-4{fill:#616faa;}.cls-5{fill:#b3dff2;}.cls-6{fill:#f9fcfe;}.cls-7{fill:#5cb2cc;opacity:0.6;}.cls-8{fill:#d78228;}</style></defs><path class="cls-1" d="M237.18,1499v22a44.1,44.1,0,0,0,44.23,44h1808.9a44.1,44.1,0,0,0,44.23-44v-22Z" transform="translate(-237.18 -879.22)"/><path class="cls-2" d="M2090.31,1547.34H281.41a44.11,44.11,0,0,1-44.23-44V1521a44.1,44.1,0,0,0,44.23,44h1808.9a44.1,44.1,0,0,0,44.23-44v-17.6A44.11,44.11,0,0,1,2090.31,1547.34Z" transform="translate(-237.18 -879.22)"/><path class="cls-3" d="M404.56,1531.94a6.59,6.59,0,0,0,6.59,6.6H1456.31a6.59,6.59,0,0,0,6.6-6.6h0a6.59,6.59,0,0,0-6.6-6.59H411.15a6.59,6.59,0,0,0-6.59,6.59Z" transform="translate(-237.18 -879.22)"/><path class="cls-4" d="M2123.71,1471.86c21.13,27,10.37,49.09-23.91,49.09H271.92c-34.28,0-45-22.09-23.92-49.09l239.81-306.41c21.12-27,66.45-49.08,100.74-49.08H1783.17c34.28,0,79.61,22.08,100.74,49.08Z" transform="translate(-237.18 -879.22)"/><path class="cls-5" d="M2055.74,1455.39c19.59,24,9.61,43.57-22.18,43.57H338.16c-31.8,0-41.78-19.61-22.19-43.57l222.43-272c19.59-24,61.64-43.57,93.44-43.57h1108c31.81,0,73.85,19.61,93.45,43.57Z" transform="translate(-237.18 -879.22)"/><path class="cls-3" d="M1668.13,1533.77c0,2.64-3,4.77-6.6,4.77h-173.7c-3.65,0-6.6-2.13-6.6-4.77h0c0-2.63,3-4.76,6.6-4.76h173.7c3.65,0,6.6,2.13,6.6,4.76Z" transform="translate(-237.18 -879.22)"/><path class="cls-3" d="M2049.26,1535.24a3.3,3.3,0,0,1-3.3,3.3H1710.28a3.3,3.3,0,0,1-3.3-3.3h0a3.3,3.3,0,0,1,3.3-3.3H2046a3.3,3.3,0,0,1,3.3,3.3Z" transform="translate(-237.18 -879.22)"/><path class="cls-6" d="M1843.2,1331l98.44-15.09-19.39-23.72-80.91,12.41-6.63-119.46-1.39-1.71A99.64,99.64,0,0,0,1814,1165.8l.72,10.3-128.82-21.44-1-14.84h-17.63L1692.44,1499h17.63l-16-227.37,48.46,18.23,21,162.24h70.56l3.3,46.9H1855Zm-56.49,94.71-20-155L1692,1242.62l-4.28-60.9,128.83,21.44,15.66,222.51Z" transform="translate(-237.18 -879.22)"/><path class="cls-6" d="M1574.59,1499l23-359.14H1580l-16.14,238.94h-70.88l-24-199.35H1350.35l-6.88-39.59h-17.85L1352,1291.59l-80.72-20.82-9-131h-17.63l8.72,126.32L1213.81,1256l-17.87-78.53-116.39,20.45h0l-26.6-58.06h-19l116.35,286.23-163,13.37L975.9,1367,973.71,1353,954,1227.65l-2.28-14.51-11.51-73.32h-17.8l11.77,75-82.58,7.92v-82.91H831.37v84.86l-125.69,12.06,25.12-96.92H712.63l-6.84,26.4V1153H609l3.77-11.16a136.36,136.36,0,0,0-20.56,5.91l-1.77,5.25H586v13.2L557.4,1251l-80.59,7.73-13.07,16,88.53-8.5-17.57,52.06-100.1-7.94-11.29,13.82,106.56,8.45L473.74,1499H492.3L548,1334l112,8.88L619.56,1499h18.16l40.08-154.65,86.79,6.87L753.24,1499H779.7l11.19-145.68L958,1366.52,978.81,1499h17.81l-5.24-33.41,169.56-14.23,19,47.64h19l-112-275.58,88.86-15.62,40,175.59,45.08-8.87L1269.4,1499H1287l-3.24-46.9h96.1L1388,1499h17.85l-51-293.17h90.66l23.94,199.36H1563l-6,93.81ZM600.11,1179.41H702.37l-15.32,59.12-110.46,10.59Zm63.63,149.07-111-8.79,18.67-55.34,111.68-10.72Zm17.8,1.42,20.22-78.05,129.61-12.43,20.25-2,84.86-8.14,19.2,122.31Zm554.24,22.62-15.38-67.62,34.85,9,3.73,54ZM1357,1320.11l18.35,105.56H1282l-8.78-127.15Z" transform="translate(-237.18 -879.22)"/><path class="cls-7" d="M495.44,1349.44l-83.38-11.56L316,1455.39c-19.59,24-9.61,43.57,22.19,43.57h106Z" transform="translate(-237.18 -879.22)"/><polygon class="cls-7" points="334.27 385.12 315.61 440.46 426.56 449.25 445.95 374.41 334.27 385.12"/><polygon class="cls-7" points="562.79 484.51 552.9 619.74 728.8 619.74 710.11 494.41 562.79 484.51"/><polygon class="cls-7" points="859.63 350.38 929.99 524.08 969.86 507.7 934.39 338.29 859.63 350.38"/><polygon class="cls-7" points="1017.94 504.3 980.56 511.99 943.18 544.98 969.86 614.24 1025.64 614.24 1017.94 504.3"/><polygon class="cls-7" points="1025.06 260.6 1034.1 391.55 1114.82 412.37 1088.44 260.6 1025.06 260.6"/><polygon class="cls-7" points="1360.4 260.6 1349.48 431.18 1439.86 400.89 1429.99 260.6 1360.4 260.6"/><polygon class="cls-7" points="1439.86 412.37 1349.48 452.63 1337.41 619.74 1455.26 619.74 1439.86 412.37"/><polygon class="cls-7" points="1582.58 369.03 1529.48 391.49 1549.54 546.45 1595.06 546.45 1582.58 369.03"/><path class="cls-8" d="M838.67,879.22A117,117,0,0,0,726,1027.84c21,95.54,112.65,210.89,112.65,210.89s91.67-115.35,112.66-210.89A117,117,0,0,0,838.67,879.22Zm0,144.15a51.73,51.73,0,1,1,51.72-51.73A51.72,51.72,0,0,1,838.67,1023.37Z" transform="translate(-237.18 -879.22)"/><path class="cls-8" d="M1895.84,1059A85,85,0,0,0,1814,1166.89c15.25,69.39,81.82,153.15,81.82,153.15s66.56-83.76,81.8-153.15a84.93,84.93,0,0,0-81.8-107.92Zm0,104.68a37.56,37.56,0,1,1,37.55-37.56A37.57,37.57,0,0,1,1895.84,1163.65Z" transform="translate(-237.18 -879.22)"/></svg>