<svg xmlns="http://www.w3.org/2000/svg" viewBox="0 0 1897.36 1232.48"><defs><style>.cls-1{isolation:isolate;}.cls-2{fill:#555c8a;}.cls-3{fill:#373e68;}.cls-4{fill:#51a5dc;}.cls-5{fill:#616faa;}.cls-6{fill:#b3dff2;}.cls-7{fill:#f9fcfe;}.cls-8{fill:#5cb2cc;opacity:0.6;}.cls-10,.cls-11,.cls-12,.cls-13,.cls-9{fill:#d78228;}.cls-10{opacity:0.4;}.cls-11{stroke:#d78228;stroke-linejoin:round;stroke-width:12.26px;}.cls-11,.cls-13{stroke-linecap:round;}.cls-12{opacity:0.5;mix-blend-mode:multiply;}.cls-13{stroke:#7e4e38;stroke-miterlimit:10;stroke-width:0.8px;}.cls-14{fill:#cdcae1;}.cls-15{fill:#342649;}</style></defs><g class="cls-1"><g id="Capa_1" data-name="Capa 1"><path class="cls-2" d="M237.18,1499v22a44.1,44.1,0,0,0,44.23,44h1808.9a44.1,44.1,0,0,0,44.23-44v-22Z" transform="translate(-237.18 -332.44)"/><path class="cls-3" d="M2090.31,1547.34H281.41a44.11,44.11,0,0,1-44.23-44V1521a44.1,44.1,0,0,0,44.23,44h1808.9a44.1,44.1,0,0,0,44.23-44v-17.6A44.11,44.11,0,0,1,2090.31,1547.34Z" transform="translate(-237.18 -332.44)"/><path class="cls-4" d="M404.56,1531.94a6.59,6.59,0,0,0,6.59,6.6H1456.31a6.59,6.59,0,0,0,6.6-6.6h0a6.59,6.59,0,0,0-6.6-6.59H411.15a6.59,6.59,0,0,0-6.59,6.59Z" transform="translate(-237.18 -332.44)"/><path class="cls-5" d="M2123.71,1471.86c21.13,27,10.37,49.09-23.91,49.09H271.92c-34.28,0-45-22.09-23.92-49.09l239.81-306.41c21.12-27,66.45-49.08,100.74-49.08H1783.17c34.28,0,79.61,22.08,100.74,49.08Z" transform="translate(-237.18 -332.44)"/><path class="cls-6" d="M2055.74,1455.39c19.59,24,9.61,43.57-22.18,43.57H338.16c-31.8,0-41.78-19.61-22.19-43.57l222.43-272c19.59-24,61.64-43.57,93.44-43.57h1108c31.81,0,73.85,19.61,93.45,43.57Z" transform="translate(-237.18 -332.44)"/><path class="cls-4" d="M1668.13,1533.77c0,2.64-3,4.77-6.6,4.77h-173.7c-3.65,0-6.6-2.13-6.6-4.77h0c0-2.63,3-4.76,6.6-4.76h173.7c3.65,0,6.6,2.13,6.6,4.76Z" transform="translate(-237.18 -332.44)"/><path class="cls-4" d="M2049.26,1535.24a3.3,3.3,0,0,1-3.3,3.3H1710.28a3.3,3.3,0,0,1-3.3-3.3h0a3.3,3.3,0,0,1,3.3-3.3H2046a3.3,3.3,0,0,1,3.3,3.3Z" transform="translate(-237.18 -332.44)"/><path class="cls-7" d="M1843.2,1331l98.44-15.09-19.39-23.72-80.91,12.41-6.63-119.46-1.39-1.71A99.64,99.64,0,0,0,1814,1165.8l.72,10.3-128.82-21.44-1-14.84h-17.63L1692.44,1499h17.63l-16-227.37,48.46,18.23,21,162.24h70.56l3.3,46.9H1855Zm-56.49,94.71-20-155L1692,1242.62l-4.28-60.9,128.83,21.44,15.66,222.51Z" transform="translate(-237.18 -332.44)"/><path class="cls-7" d="M1574.59,1499l23-359.14H1580l-16.14,238.94h-70.88l-24-199.35H1350.35l-6.88-39.59h-17.85L1352,1291.59l-80.72-20.82-9-131h-17.63l8.72,126.32L1213.81,1256l-17.87-78.53-116.39,20.45h0l-26.6-58.06h-19l116.35,286.23-163,13.37L975.9,1367,973.71,1353,954,1227.65l-2.28-14.51-11.51-73.32h-17.8l11.77,75-82.58,7.92v-82.91H831.37v84.86l-125.69,12.06,25.12-96.92H712.63l-6.84,26.4V1153H609l3.77-11.16a136.36,136.36,0,0,0-20.56,5.91l-1.77,5.25H586v13.2L557.4,1251l-80.59,7.73-13.07,16,88.53-8.5-17.57,52.06-100.1-7.94-11.29,13.82,106.56,8.45L473.74,1499H492.3L548,1334l112,8.88L619.56,1499h18.16l40.08-154.65,86.79,6.87L753.24,1499H779.7l11.19-145.68L958,1366.52,978.81,1499h17.81l-5.24-33.41,169.56-14.23,19,47.64h19l-112-275.58,88.86-15.62,40,175.59,45.08-8.87L1269.4,1499H1287l-3.24-46.9h96.1L1388,1499h17.85l-51-293.17h90.66l23.94,199.36H1563l-6,93.81ZM600.11,1179.41H702.37l-15.32,59.12-110.46,10.59Zm63.63,149.07-111-8.79,18.67-55.34,111.68-10.72Zm17.8,1.42,20.22-78.05,129.61-12.43,20.25-2,84.86-8.14,19.2,122.31Zm554.24,22.62-15.38-67.62,34.85,9,3.73,54ZM1357,1320.11l18.35,105.56H1282l-8.78-127.15Z" transform="translate(-237.18 -332.44)"/><path class="cls-8" d="M495.44,1349.44l-83.38-11.56L316,1455.39c-19.59,24-9.61,43.57,22.19,43.57h106Z" transform="translate(-237.18 -332.44)"/><polygon class="cls-8" points="334.27 931.91 315.61 987.25 426.56 996.04 445.95 921.19 334.27 931.91"/><polygon class="cls-8" points="562.79 1031.29 552.9 1166.52 728.8 1166.52 710.11 1041.19 562.79 1031.29"/><polygon class="cls-8" points="859.63 897.16 929.99 1070.87 969.86 1054.48 934.39 885.07 859.63 897.16"/><polygon class="cls-8" points="1017.94 1051.09 980.56 1058.77 943.18 1091.76 969.86 1161.02 1025.64 1161.02 1017.94 1051.09"/><polygon class="cls-8" points="1025.06 807.38 1034.1 938.33 1114.82 959.15 1088.44 807.38 1025.06 807.38"/><polygon class="cls-8" points="1360.4 807.38 1349.48 977.97 1439.86 947.67 1429.99 807.38 1360.4 807.38"/><polygon class="cls-8" points="1439.86 959.15 1349.48 999.41 1337.41 1166.52 1455.26 1166.52 1439.86 959.15"/><polygon class="cls-8" points="1582.58 915.81 1529.48 938.27 1549.54 1093.23 1595.06 1093.23 1582.58 915.81"/><path class="cls-9" d="M615.41,917.75a117,117,0,0,0-112.66,148.61c21,95.55,112.66,210.89,112.66,210.89s91.67-115.34,112.66-210.89A117,117,0,0,0,615.41,917.75Zm0,144.15a51.73,51.73,0,1,1,51.71-51.73A51.73,51.73,0,0,1,615.41,1061.9Z" transform="translate(-237.18 -332.44)"/><path class="cls-9" d="M1901.13,1094.58a85,85,0,0,0-81.81,107.92c15.24,69.38,81.81,153.15,81.81,153.15s66.57-83.77,81.81-153.15a85,85,0,0,0-81.81-107.92Zm0,104.67a37.56,37.56,0,1,1,37.56-37.56A37.56,37.56,0,0,1,1901.13,1199.25Z" transform="translate(-237.18 -332.44)"/><polygon class="cls-9" points="906.04 255.28 909.63 286.7 893.61 267.92 906.04 255.28"/><polygon class="cls-9" points="888.16 259.87 906.04 255.28 889.78 280.57 888.16 259.87"/><path class="cls-9" d="M1174.71,562.63s-46-25.33-55-42.07c0,0-4.06-4.73-5.18-14.17l-2-26.69-18.24,16s-17.84,38.48-40.93,85.24c0,0,92,36.79,70.1,13,0,0,4.63-22.44,23.45-36.94C1146.89,557,1163,560.46,1174.71,562.63Z" transform="translate(-237.18 -332.44)"/><path class="cls-10" d="M1168.34,561.41c.35-.61.7-1.22,1-1.83-12.38-7.21-42.58-25.8-49.68-39a21,21,0,0,1-2.93-5.28l-26.48-11c-2.17,4.61-5.15,10.94-8.77,18.56,10.89,11.93,34.62,37.34,50.89,50.3A62.14,62.14,0,0,1,1146.89,557S1157.92,559.36,1168.34,561.41Z" transform="translate(-237.18 -332.44)"/><path class="cls-9" d="M1079,483.42c-4.93-50.68,23.76-94.92,64-98.83,34.15-3.33,84-3.82,85.36,60.19,0,0-.89,21.42-3.81,34.92,0,0,1.13,5.95,9.19,21.28,0,0-1.94,6.61-9,7.27,0,0-5.17,43.83-10.93,53,0,0-1.9,3.33-7.78,3.33,0,0-27.84,2.14-72.54-12,0,0-8.68-3.09-10.48-11.86s-9.12-46.81-9.12-46.81Z" transform="translate(-237.18 -332.44)"/><path class="cls-9" d="M1149.07,432.74c22.53,9.5,58.39,13.53,79.16,15.15.11-1.93.16-3.11.16-3.11-.32-15.62-3.56-27.39-8.74-36.23-31.1-3.66-60.42-7.22-60.42-7.22S1115.84,418.73,1149.07,432.74Z" transform="translate(-237.18 -332.44)"/><path class="cls-9" d="M1228.39,488.9s-28.24-.65-41.53,10.32-43.64-5.17-43.64-5.17l-12.31,29.65s32.2,35.83,37.37,38.59,43.62,7.79,46.69,2.38,29.6-51.93,22-62C1236.93,502.62,1233.77,497.86,1228.39,488.9Z" transform="translate(-237.18 -332.44)"/><path class="cls-9" d="M1126.87,513.57s15.66,41,23,47l16.69,4,1.73-2.26s-20.72-40-25.06-58.73c0,0-2.36-4.34-5.68-4.34S1120.86,504.25,1126.87,513.57Z" transform="translate(-237.18 -332.44)"/><path class="cls-9" d="M1186.86,499.22c-13.28,11-43.64-5.17-43.64-5.17l-2.17,5.22a28.23,28.23,0,0,0,15.06,10.4c15.22,4.09,27.18,2.56,41.48-6.11,11-6.65,29-5.66,36.85-4.83-1.46-2.3-3.49-5.58-6-9.83C1228.39,488.9,1200.15,488.25,1186.86,499.22Z" transform="translate(-237.18 -332.44)"/><path class="cls-9" d="M1167.65,428c-24.9,24-10.66,63.54-10.66,63.54,4.44,12.43,8,34.65-10.23,40.44s-61.12-14.79-61.12-14.79a101.36,101.36,0,1,1,158.93-83.43s-58.43-12.44-68-9.35Z" transform="translate(-237.18 -332.44)"/><path class="cls-9" d="M1053.85,448.93a101.31,101.31,0,0,1,174.54-70A101.32,101.32,0,1,0,1070,503.83,100.84,100.84,0,0,1,1053.85,448.93Z" transform="translate(-237.18 -332.44)"/><path class="cls-9" d="M1146.76,532c18.23-5.79,14.67-28,10.23-40.44,0,0-14.24-39.57,10.66-63.54l8.89-3.59c9.6-3.09,68,9.35,68,9.35a102.31,102.31,0,0,0-1-14.3c-24.5-3.11-61.6-12.93-77.21-9.28-22.68,5.35-29.79,43.56-20.9,85.8,8.76,41.64-69.35,12.46-71.54,11.64a103.08,103.08,0,0,0,11.75,9.57S1128.53,537.8,1146.76,532Z" transform="translate(-237.18 -332.44)"/><path class="cls-9" d="M1183.21,424s53.44-6,59.83-7.67c0,0,22.22,22.1,20.44,23.46l-3.55,2.2S1216.56,437.78,1183.21,424Z" transform="translate(-237.18 -332.44)"/><path class="cls-9" d="M1263.48,439.78c.36-.27-.26-1.38-1.44-2.95-13.22-1.9-40.91-6.49-65.68-14.35-7.66.89-13.15,1.51-13.15,1.51,33.35,13.79,76.72,18,76.72,18Z" transform="translate(-237.18 -332.44)"/><path class="cls-9" d="M1205.26,476.46c0,4.79,2.17,8.69,4.85,8.69s4.86-3.9,4.86-8.69-2.18-8.69-4.86-8.69S1205.26,471.66,1205.26,476.46Z" transform="translate(-237.18 -332.44)"/><path class="cls-9" d="M1214.24,457a13.57,13.57,0,0,0-3.47-.84,12.26,12.26,0,0,0-3.68.15,11.13,11.13,0,0,0-6.38,3.8l0,0a1,1,0,0,1-1.61-1.22,13.83,13.83,0,0,1,7.14-5.71,16,16,0,0,1,4.65-.86,17,17,0,0,1,4.82.49,2.21,2.21,0,1,1-1.07,4.29l-.32-.1Z" transform="translate(-237.18 -332.44)"/><path class="cls-9" d="M1105.27,374.27c1.6,2.81,7.93,2.24,14.12-1.28s9.92-8.67,8.31-11.49-7.92-2.25-14.12,1.28S1103.66,371.45,1105.27,374.27Z" transform="translate(-237.18 -332.44)"/><path class="cls-9" d="M1097.45,376.06s11.75,4.85,3.57,13S1069.86,432,1067.3,442c0,0-2.55,6.89-5.62,6.89s-3.06-7.74,0-16.13S1082.12,379.89,1097.45,376.06Z" transform="translate(-237.18 -332.44)"/><path class="cls-9" d="M1577.57,731.57c0,23.38-11.75,42.34-26.25,42.34s-26.25-19-26.25-42.34,11.75-42.35,26.25-42.35S1577.57,708.18,1577.57,731.57Z" transform="translate(-237.18 -332.44)"/><rect class="cls-9" x="1298.74" y="351.82" width="20.69" height="94.61" rx="9.2"/><path class="cls-9" d="M1511.25,794.36s34,68.76,77.51,165.33c8.59,19.09-4.71,34.5-29.74,46.89L1458.76,794.36Z" transform="translate(-237.18 -332.44)"/><path class="cls-9" d="M1653.88,1128.4a141.66,141.66,0,1,0,141.66,141.7A141.7,141.7,0,0,0,1653.88,1128.4Zm0,230.07a88.41,88.41,0,1,1,88.42-88.37A88.39,88.39,0,0,1,1653.88,1358.47Z" transform="translate(-237.18 -332.44)"/><path class="cls-9" d="M1653.88,1137.4a132.66,132.66,0,1,0,132.64,132.7A132.68,132.68,0,0,0,1653.88,1137.4Zm0,221.07a88.41,88.41,0,1,1,88.42-88.37A88.39,88.39,0,0,1,1653.88,1358.47Z" transform="translate(-237.18 -332.44)"/><path class="cls-9" d="M1653.88,1175.2a94.88,94.88,0,1,0,94.86,94.9A94.86,94.86,0,0,0,1653.88,1175.2Zm0,183.27a88.41,88.41,0,1,1,88.42-88.37A88.39,88.39,0,0,1,1653.88,1358.47Z" transform="translate(-237.18 -332.44)"/><path class="cls-9" d="M1709.7,1270.1a55.81,55.81,0,1,1-55.82-55.84A55.81,55.81,0,0,1,1709.7,1270.1Z" transform="translate(-237.18 -332.44)"/><path class="cls-9" d="M1648.73,1182.1v176a32.61,32.61,0,0,0,10.31,0v-176a30.42,30.42,0,0,0-10.31,0Z" transform="translate(-237.18 -332.44)"/><path class="cls-9" d="M1588.76,1210.74l124.44,124.44a22.17,22.17,0,0,0,3.2-2.58,22.42,22.42,0,0,0,2.6-3.21L1594.57,1205a22.74,22.74,0,0,0-3.21,2.57A24,24,0,0,0,1588.76,1210.74Z" transform="translate(-237.18 -332.44)"/><path class="cls-9" d="M1719,1210.74l-124.43,124.44a21.72,21.72,0,0,1-3.21-2.58,23.12,23.12,0,0,1-2.6-3.21L1713.2,1205a22.1,22.1,0,0,1,3.2,2.57A22.49,22.49,0,0,1,1719,1210.74Z" transform="translate(-237.18 -332.44)"/><path class="cls-9" d="M1741.88,1274.25h-176a20.26,20.26,0,0,1-.44-4.15,21.13,21.13,0,0,1,.44-4.22h176a21.06,21.06,0,0,1,0,8.37Z" transform="translate(-237.18 -332.44)"/><path class="cls-9" d="M1699.1,1270.1a45.22,45.22,0,1,1-45.22-45.27A45.23,45.23,0,0,1,1699.1,1270.1Z" transform="translate(-237.18 -332.44)"/><path class="cls-9" d="M1673.55,1270.1a19.67,19.67,0,1,1-19.67-19.71A19.67,19.67,0,0,1,1673.55,1270.1Z" transform="translate(-237.18 -332.44)"/><path class="cls-9" d="M1661.53,1270a8.06,8.06,0,0,1-4.34,10.52h0a8.05,8.05,0,0,1-10.52-4.34l-40.11-96.4a8,8,0,0,1,4.33-10.53h0a8.05,8.05,0,0,1,10.52,4.34Z" transform="translate(-237.18 -332.44)"/><polygon class="cls-9" points="1407.98 883.4 1381.97 893.78 1338.58 783.69 1364.59 773.31 1407.98 883.4"/><path class="cls-9" d="M1754.23,1149.38l19.18-10.08c-80.76-154.61-212.66-90.38-212.66-90.38s-112.6,65.1-43.83,169.64C1516.92,1218.56,1569.6,1049,1754.23,1149.38Z" transform="translate(-237.18 -332.44)"/><path class="cls-9" d="M1553,1069.23s124.55-60.63,205.7,77.81l14.73-7.74c-80.76-154.61-212.66-90.38-212.66-90.38s-49.61,28.7-62.85,78.57C1516.69,1090.22,1553,1069.23,1553,1069.23Z" transform="translate(-237.18 -332.44)"/><path class="cls-9" d="M1226.8,1221.66h123.1c33.46,0,74-24,90.09-53.33l36.25-66.07c16.09-29.34,25.1-80.39,20-113.46l-27-113.08c-5.08-33.07,11.72-36.14,20.43-39.81s28.22,17.76,43.37,47.59l36.5,71.93c15.14,29.83,16.8,79.43,3.69,110.21L1513.44,1206c-13.12,30.79-51.22,56-84.67,56H1275.28c-33.45,0-96.77,3.22-101.85-7.86S1209.85,1221.66,1226.8,1221.66Z" transform="translate(-237.18 -332.44)"/><path class="cls-9" d="M900.09,1003a8.43,8.43,0,0,0,11.75,2h0a8.44,8.44,0,0,0,2-11.75L847.15,899a8.43,8.43,0,0,0-11.75-2h0a8.43,8.43,0,0,0-2,11.75Z" transform="translate(-237.18 -332.44)"/><path class="cls-9" d="M861.65,988.23l-8-7.18A24.52,24.52,0,0,0,819,982.87L786.49,1019a24.52,24.52,0,0,0,1.81,34.63l8,7.18Z" transform="translate(-237.18 -332.44)"/><polygon class="cls-9" points="548.9 725.96 548.9 725.96 564.22 739.75 564.22 739.75 636.31 659.69 636.31 659.69 620.99 645.9 620.99 645.9 548.9 725.96"/><path class="cls-9" d="M968.5,1128.4a141.66,141.66,0,1,0,141.64,141.7A141.69,141.69,0,0,0,968.5,1128.4Zm0,230.07a88.41,88.41,0,1,1,88.4-88.37A88.4,88.4,0,0,1,968.5,1358.47Z" transform="translate(-237.18 -332.44)"/><path class="cls-9" d="M968.5,1137.4a132.66,132.66,0,1,0,132.64,132.7A132.67,132.67,0,0,0,968.5,1137.4Zm0,221.07a88.41,88.41,0,1,1,88.4-88.37A88.4,88.4,0,0,1,968.5,1358.47Z" transform="translate(-237.18 -332.44)"/><path class="cls-9" d="M968.5,1175.2a94.88,94.88,0,1,0,94.86,94.9A94.87,94.87,0,0,0,968.5,1175.2Zm0,183.27a88.41,88.41,0,1,1,88.4-88.37A88.4,88.4,0,0,1,968.5,1358.47Z" transform="translate(-237.18 -332.44)"/><path class="cls-9" d="M1024.3,1270.1a55.81,55.81,0,1,1-55.8-55.84A55.8,55.8,0,0,1,1024.3,1270.1Z" transform="translate(-237.18 -332.44)"/><path class="cls-9" d="M963.34,1182.1v176a32.55,32.55,0,0,0,10.3,0v-176a30.36,30.36,0,0,0-10.3,0Z" transform="translate(-237.18 -332.44)"/><path class="cls-9" d="M903.38,1210.74l124.43,124.44a19,19,0,0,0,5.79-5.79L909.17,1205a22.74,22.74,0,0,0-3.21,2.57A23.8,23.8,0,0,0,903.38,1210.74Z" transform="translate(-237.18 -332.44)"/><path class="cls-9" d="M1033.6,1210.74,909.17,1335.18a22.25,22.25,0,0,1-3.21-2.58,23.71,23.71,0,0,1-2.58-3.21L1027.81,1205a22.74,22.74,0,0,1,3.21,2.57A23,23,0,0,1,1033.6,1210.74Z" transform="translate(-237.18 -332.44)"/><path class="cls-9" d="M1056.48,1274.25h-176a20.58,20.58,0,0,1,0-8.37h176a21.06,21.06,0,0,1,0,8.37Z" transform="translate(-237.18 -332.44)"/><path class="cls-9" d="M1013.71,1270.1a45.22,45.22,0,1,1-45.21-45.27A45.23,45.23,0,0,1,1013.71,1270.1Z" transform="translate(-237.18 -332.44)"/><path class="cls-9" d="M737.61,1237.38a24.32,24.32,0,0,0-2.88,11.52v4.83a24.52,24.52,0,0,0,24.52,24.52H1187.5a24.52,24.52,0,0,0,24.53-24.52v-4.83a24.43,24.43,0,0,0-2.88-11.52Z" transform="translate(-237.18 -332.44)"/><path class="cls-9" d="M751.22,1266v-4.83a24.28,24.28,0,0,1,2.88-11.51H1212v-.73a24.43,24.43,0,0,0-2.88-11.52H737.61a24.32,24.32,0,0,0-2.88,11.52v4.83a24.52,24.52,0,0,0,19.49,24A24.4,24.4,0,0,1,751.22,1266Z" transform="translate(-237.18 -332.44)"/><path class="cls-9" d="M1041.07,568s9.59-18.38,12.27-19.7c0,0,49.08,5.57,76.65,38,0,0,2.09,24.3-.48,27.36C1129.51,613.67,1048.53,586,1041.07,568Z" transform="translate(-237.18 -332.44)"/><path class="cls-9" d="M1352,1144l-19.69-4.66s-9.39-12.53-12.18-18.26l-17.5,7.81s.13,22.28-2.28,30.27C1300.33,1159.12,1347.48,1156.23,1352,1144Z" transform="translate(-237.18 -332.44)"/><path class="cls-9" d="M1335.3,1137.72s19.24,6.42,58,13.63c0,0,36.24-6,28.86,26.21l-123.61,2.52s-3.67-16.93,1.43-31.73C1300,1148.35,1344.31,1148.35,1335.3,1137.72Z" transform="translate(-237.18 -332.44)"/><path class="cls-9" d="M1423.09,1170.3s5.54,1.85,3.85,9.78H1298.57s-3.62-6.42-1.31-10.86c0,0,79.11,5,96.65,3.94S1423.09,1170.3,1423.09,1170.3Z" transform="translate(-237.18 -332.44)"/><path class="cls-9" d="M1339.36,1138.92s-1.77,6.61-10,6.48c0,0-5-13.16-2.46-16.43C1326.86,1129,1328.34,1124.12,1339.36,1138.92Z" transform="translate(-237.18 -332.44)"/><path class="cls-9" d="M1238.52,1205s3.55-61.37,0-76.55-16.49-60.07-58.23-99.51c0,0,39.74-69.64,34-84.74s-340.63-55.62-310.87,33.58l240.53,217.78Z" transform="translate(-237.18 -332.44)"/><path class="cls-9" d="M1448.15,1172.62l-209.63,2.58s-49.79-61.46-85.34-76.63c-28.78-12.28,17,91.41,35.48,131.37h218.12l41.37-40.09Z" transform="translate(-237.18 -332.44)"/><path class="cls-9" d="M1214.34,1205h123.1c33.45,0,74-24,90.09-53.34l36.24-66.07c16.1-29.33,25.11-80.39,20-113.46l-27-113.07c-5.08-33.08,11.71-36.15,20.42-39.81s28.23,17.75,43.37,47.59l36.5,71.93c15.14,29.83,16.8,79.42,3.69,110.2L1501,1189.27c-13.11,30.78-51.21,56-84.67,56H1262.82c-33.46,0-96.77,3.23-101.86-7.85S1197.38,1205,1214.34,1205Z" transform="translate(-237.18 -332.44)"/><path class="cls-9" d="M1246.59,1237.38H747.11s-10.42-200,165.74-263.27H1239v47.36s-1.13,22.84-24.78,23.5c0,0-30.54-3.09-30,10.13,1.06,27.44,14.86,92.39,62.36,120.1Z" transform="translate(-237.18 -332.44)"/><path class="cls-9" d="M1202.92,1199.74H789.84s-4,20.63,4.73,37.64h408.35Z" transform="translate(-237.18 -332.44)"/><path class="cls-9" d="M814.1,1224.83c-38.83,0-19.4-50.18-19.4-50.18C860.12,995.61,999,994.24,999,994.24c209.8-21.34,216.44,230.59,216.44,230.59Z" transform="translate(-237.18 -332.44)"/><path class="cls-9" d="M807.12,1224.18a36.11,36.11,0,0,0,7,.65h358.51c-7.83-65.3-41.5-218.94-184.8-202.08,0,0-120.06,1.36-176.63,180.41A94.73,94.73,0,0,0,807.12,1224.18Z" transform="translate(-237.18 -332.44)"/><path class="cls-9" d="M1544.74,681.59c-.37-.29-115-3.54-115,52.06,0,0,0,21.12,31.29,77.41,0,0,33.68-7.88,60.4-12.6l-.65-12.14a206.82,206.82,0,0,0,24-6.17Z" transform="translate(-237.18 -332.44)"/><path class="cls-9" d="M1440.79,742.84c0-45,75.13-51.44,104-52.11v-9.14c-.37-.29-115-3.54-115,52.06,0,0,0,21.12,31.29,77.41l5.42-1.24C1440.8,761.34,1440.79,742.84,1440.79,742.84Z" transform="translate(-237.18 -332.44)"/><path class="cls-9" d="M1456.77,716.52a18,18,0,1,1-18-18A18,18,0,0,1,1456.77,716.52Z" transform="translate(-237.18 -332.44)"/><path class="cls-9" d="M1349.29,1129.6l-2-218.46C1339,885.31,1319,889.21,1319,889.21s-79.94-10-29,46.68l6.56,197.55S1311.17,1150.31,1349.29,1129.6Z" transform="translate(-237.18 -332.44)"/><path class="cls-9" d="M1308,1149.37l-19.68-4.63s-9.4-12.5-12.18-18.26l-17.52,7.78s.15,22.28-2.26,30.31C1256.35,1164.57,1303.5,1161.7,1308,1149.37Z" transform="translate(-237.18 -332.44)"/><path class="cls-9" d="M1295.37,1144.39s-1.76,6.55-10,6.48c0,0-4.95-13.15-2.45-16.45C1282.88,1134.42,1284.36,1129.54,1295.37,1144.39Z" transform="translate(-237.18 -332.44)"/><path class="cls-9" d="M1021.18,825.85s-20.79,105.66,40.43,115.79c0,0,165.23,9.35,205.8,9.35,0,0,42.6-36,28-65.3,0,0-138.81-24.24-151.46-27.57l3-32.27Z" transform="translate(-237.18 -332.44)"/><path class="cls-10" d="M1145.69,858.12l3-32.27h-73.65l-55.52,36.3c-.25,24.17,3.68,54.19,22.22,69.81,21.2-11.18,47.93-38.78,61.17-54.77,17.31-20.84,51.8-17.12,51.88-17.12C1150.36,859.18,1147.17,858.49,1145.69,858.12Z" transform="translate(-237.18 -332.44)"/><path class="cls-9" d="M1305.3,1135.07l15.44-223.93c-8.28-25.83-28.58-25.83-28.58-25.83s-68.34,7.24-28.75,50.58l-10.9,203S1267.19,1155.72,1305.3,1135.07Z" transform="translate(-237.18 -332.44)"/><path class="cls-9" d="M1291.31,1143.16a178.73,178.73,0,0,0,58,13.63s36.24-6,28.86,26.22l-123.61,2.55s-3.66-17,1.44-31.72C1256,1153.84,1300.35,1153.84,1291.31,1143.16Z" transform="translate(-237.18 -332.44)"/><path class="cls-9" d="M1379.11,1175.74s5.54,1.82,3.84,9.82H1254.58s-3.62-6.45-1.3-10.89c0,0,79.11,5,96.65,3.94S1379.11,1175.74,1379.11,1175.74Z" transform="translate(-237.18 -332.44)"/><path class="cls-9" d="M1002.44,691.57c5-71.2,28.08-129.78,50.9-126.9,60.61,7.63,88.29,25.18,92.73,149.8a210.58,210.58,0,0,1-2.16,44.07c-5.38,34.55,17.26,92.91.31,96.31,0,0-30.33-9.91-50.6,4.1-74.07,51.19-82.11,49.84-82.11,49.84s-9.82-1.1-9.07-17.2,0-200,0-200" transform="translate(-237.18 -332.44)"/><path class="cls-9" d="M1143.91,758.54a210.58,210.58,0,0,0,2.16-44.07v0l-80.12-119S1046,623,1053.34,657.54c6.37,30,77.31,137.32,95.13,161.25C1146,802.65,1141.8,772.1,1143.91,758.54Z" transform="translate(-237.18 -332.44)"/><path class="cls-9" d="M1078.44,657.54s56.83,93,65.47,104.53a47.57,47.57,0,0,0,45.33,17.76s125-5.57,153.67-11.36c0,0,18.94,3.06,25.25-10.47s14.9-25.06,20.84-25.53,3.66,16.9,12.35,18,0-26.44,0-26.44-9.44-12.68-16.38-12.11-32.44,20.12-46.35,33.9c0,0-144.63-2.8-156.15-5.48l-43.67-92.21Z" transform="translate(-237.18 -332.44)"/><path class="cls-10" d="M1132.63,745l38.95-27.61-17.09-36.08-46.08,25C1117,720.05,1125.78,734.2,1132.63,745Z" transform="translate(-237.18 -332.44)"/><path class="cls-9" d="M1089.12,584s-28.51,1.76-29.74,29.68,44.54,117.9,44.54,117.9,31.24-9.68,64.36-33.05C1168.28,698.52,1126.11,574.9,1089.12,584Z" transform="translate(-237.18 -332.44)"/><path class="cls-9" d="M1438.76,720.7a4.19,4.19,0,0,1-4-3l-9.54-33.23a16.86,16.86,0,0,0-8-9.11l-46.28-19.89a4.17,4.17,0,1,1,3.3-7.66l46.27,19.88c5.5,2.36,11.1,8.71,12.75,14.47l9.54,33.24a4.21,4.21,0,0,1-4,5.33Z" transform="translate(-237.18 -332.44)"/><polyline class="cls-11" points="686.09 568.5 752.69 653.02 906.74 653.02"/><path class="cls-9" d="M758.41,897.73a12.41,12.41,0,0,0,12.41,12.41H986.55A12.41,12.41,0,0,0,999,897.73h0a12.42,12.42,0,0,0-12.41-12.42H770.82a12.41,12.41,0,0,0-12.41,12.42Z" transform="translate(-237.18 -332.44)"/><path class="cls-9" d="M906.3,1205a4.71,4.71,0,0,0,4.72,4.71h125.25A4.72,4.72,0,0,0,1041,1205h0a4.73,4.73,0,0,0-4.72-4.73H911a4.72,4.72,0,0,0-4.72,4.73Z" transform="translate(-237.18 -332.44)"/><path class="cls-9" d="M906.3,1186.38a4.72,4.72,0,0,0,4.72,4.72h125.25a4.73,4.73,0,0,0,4.72-4.72h0a4.72,4.72,0,0,0-4.72-4.72H911a4.72,4.72,0,0,0-4.72,4.72Z" transform="translate(-237.18 -332.44)"/><path class="cls-9" d="M906.3,1167.81a4.72,4.72,0,0,0,4.72,4.72h125.25a4.72,4.72,0,0,0,4.72-4.72h0a4.72,4.72,0,0,0-4.72-4.72H911a4.72,4.72,0,0,0-4.72,4.72Z" transform="translate(-237.18 -332.44)"/><path class="cls-9" d="M906.3,1149.24A4.72,4.72,0,0,0,911,1154h125.25a4.72,4.72,0,0,0,4.72-4.72h0a4.71,4.71,0,0,0-4.72-4.71H911a4.71,4.71,0,0,0-4.72,4.71Z" transform="translate(-237.18 -332.44)"/><path class="cls-9" d="M542.1,357.38H745a3.69,3.69,0,0,1,3.69,3.69V549.19a3.68,3.68,0,0,1-3.68,3.68H542.1a3.69,3.69,0,0,1-3.69-3.69V361.07A3.69,3.69,0,0,1,542.1,357.38Z"/><path class="cls-12" d="M985.84,735.92V693.51a3.69,3.69,0,0,0-3.69-3.69H779.28a3.69,3.69,0,0,0-3.69,3.69v42.41Z" transform="translate(-237.18 -332.44)"/><path class="cls-9" d="M888.09,881.62a3.69,3.69,0,0,1-3.69,3.69H681.53a3.69,3.69,0,0,1-3.69-3.69V693.51a3.69,3.69,0,0,1,3.69-3.69H884.4a3.69,3.69,0,0,1,3.69,3.69Z" transform="translate(-237.18 -332.44)"/><path class="cls-12" d="M888.09,735.92V693.51a3.69,3.69,0,0,0-3.69-3.69H681.53a3.69,3.69,0,0,0-3.69,3.69v42.41Z" transform="translate(-237.18 -332.44)"/><path class="cls-9" d="M1002.44,709.18a3.9,3.9,0,0,1-4.09,3.69H779.28a3.69,3.69,0,0,1-3.69-3.69V670.45a3.69,3.69,0,0,1,3.69-3.69H998.35a3.9,3.9,0,0,1,4.09,3.69Z" transform="translate(-237.18 -332.44)"/><path class="cls-9" d="M888.09,709.18a3.69,3.69,0,0,1-3.69,3.69H665.33a3.9,3.9,0,0,1-4.09-3.69V670.45a3.9,3.9,0,0,1,4.09-3.69H884.4a3.69,3.69,0,0,1,3.69,3.69Z" transform="translate(-237.18 -332.44)"/><rect class="cls-9" x="516.28" y="334.32" width="44.26" height="218.55"/><path class="cls-9" d="M820.48,852.75a2.44,2.44,0,0,1,2.43,2.46v17a2.44,2.44,0,0,1-2.43,2.46h-17a2.45,2.45,0,0,1-2.44-2.46v-17a2.45,2.45,0,0,1,2.44-2.46h17m0-1.39h-17a3.86,3.86,0,0,0-3.84,3.85v17a3.86,3.86,0,0,0,3.84,3.85h17a3.86,3.86,0,0,0,3.85-3.85v-17a3.86,3.86,0,0,0-3.85-3.85Z" transform="translate(-237.18 -332.44)"/><path class="cls-9" d="M850.15,852.75a2.45,2.45,0,0,1,2.44,2.46v17a2.45,2.45,0,0,1-2.44,2.46h-17a2.46,2.46,0,0,1-2.45-2.46v-17a2.46,2.46,0,0,1,2.45-2.46h17m0-1.39h-17a3.86,3.86,0,0,0-3.85,3.85v17a3.86,3.86,0,0,0,3.85,3.85h17a3.86,3.86,0,0,0,3.85-3.85v-17a3.86,3.86,0,0,0-3.85-3.85Z" transform="translate(-237.18 -332.44)"/><polygon class="cls-9" points="633.75 527.43 630.38 521.73 627.01 527.43 629.5 527.43 629.5 537.09 631.26 537.09 631.26 527.43 633.75 527.43"/><polygon class="cls-9" points="641.25 527.43 637.88 521.73 634.5 527.43 636.99 527.43 636.99 537.09 638.76 537.09 638.76 527.43 641.25 527.43"/><rect class="cls-9" x="627.84" y="538.92" width="12.58" height="1.53"/><path class="cls-9" d="M879.81,852.75a2.46,2.46,0,0,1,2.45,2.46v17a2.46,2.46,0,0,1-2.45,2.46h-17a2.45,2.45,0,0,1-2.44-2.46v-17a2.45,2.45,0,0,1,2.44-2.46h17m0-1.39h-17a3.87,3.87,0,0,0-3.86,3.85v17a3.87,3.87,0,0,0,3.86,3.85h17a3.86,3.86,0,0,0,3.85-3.85v-17a3.86,3.86,0,0,0-3.85-3.85Z" transform="translate(-237.18 -332.44)"/><path class="cls-9" d="M812.44,862.13l-1.13-.18v10.57h1.22V862.13Z" transform="translate(-237.18 -332.44)"/><rect class="cls-9" x="572.27" y="540.08" width="4.95" height="0.66"/><path class="cls-9" d="M812,858.07h-1.59l1.34-3.58h-5.65c0,3.58,2.21,6.59,4.6,7.43Z" transform="translate(-237.18 -332.44)"/><path class="cls-9" d="M812.89,854.49l-1,2.9,1.91,0-2.53,4.66a2.55,2.55,0,0,0,.68.11c2.82,0,5.9-3.47,5.9-7.69Z" transform="translate(-237.18 -332.44)"/><path class="cls-9" d="M841.64,854.32s-8.63,1.44-9.6,6.82a2.37,2.37,0,0,1,3,1.22,2.41,2.41,0,0,1,4,0s1.7-1.39,2.61,0c.92-1.39,2.61,0,2.61,0a2.42,2.42,0,0,1,4,0,2.37,2.37,0,0,1,3-1.22C850.26,855.76,841.64,854.32,841.64,854.32Z" transform="translate(-237.18 -332.44)"/><path class="cls-13" d="M846,870.05a2.2,2.2,0,0,1-4.4,0V859" transform="translate(-237.18 -332.44)"/><path class="cls-9" d="M1383.89,736.08l95.64,11.49a9.2,9.2,0,1,1-2.2,18.27c-.24,0-.5-.07-.74-.12l-94.38-19.26a5.26,5.26,0,0,1,1.68-10.38Z" transform="translate(-237.18 -332.44)"/><path class="cls-9" d="M1398.41,740.36a16.3,16.3,0,1,1-16.3-16.33A16.31,16.31,0,0,1,1398.41,740.36Z" transform="translate(-237.18 -332.44)"/><path class="cls-9" d="M1392.31,740.35a10.2,10.2,0,1,1-10.2-10.22A10.2,10.2,0,0,1,1392.31,740.35Z" transform="translate(-237.18 -332.44)"/><path class="cls-9" d="M1103.92,731.57s31.24-9.68,64.36-33.05c0,0-2.51-7.35-6.83-18.32L1097,717.59C1101.16,726.15,1103.92,731.57,1103.92,731.57Z" transform="translate(-237.18 -332.44)"/><path class="cls-14" d="M1362.88,624.57v54.09a28.57,28.57,0,0,0,0-54.09Z" transform="translate(-237.18 -332.44)"/><path class="cls-15" d="M1359.31,676.88a3.32,3.32,0,0,0,3.32,3.32h0a3.32,3.32,0,0,0,3.32-3.32V626.34a3.32,3.32,0,0,0-3.32-3.32h0a3.32,3.32,0,0,0-3.32,3.32Z" transform="translate(-237.18 -332.44)"/></g></g></svg>