<?xml version="1.0" encoding="utf-8"?>
<!-- Generator: Adobe Illustrator 24.2.3, SVG Export Plug-In . SVG Version: 6.00 Build 0)  -->
<svg version="1.1" id="Layer_1" xmlns="http://www.w3.org/2000/svg" xmlns:xlink="http://www.w3.org/1999/xlink" x="0px" y="0px"
	 viewBox="0 0 477 385.3" style="enable-background:new 0 0 477 385.3;" xml:space="preserve">
<style type="text/css">
	.st0{fill:#D78228;}
	.st1{fill:#FFFFFF;}
	.st2{opacity:0.12;fill:#050606;enable-background:new    ;}
	.st3{display:none;fill:#FFFFFF;fill-opacity:0;}
</style>
<path class="st0" d="M166.9,147.4H477c-18.4,67.2-36.8,134.4-55.2,201.7l-18.7-1.4c-1.2-2.1-14.6-24.9-34.3-24.7
	c-2.9,0-11.5,0.1-18.7,6.8c-4.1,3.8-4.6,6.8-7.9,10.7c-3.8,4.5-10.7,9.3-23.7,9.6c-10.8-0.3-17.7-4-22.2-7.5
	c-4.8-3.7-5.2-6-11.4-10.7c-5.1-3.8-10.9-8.2-18.7-8.5c-7.5-0.3-13.2,3.4-17.2,5.9c-8.3,5.3-9,9.6-15.9,14.2
	c-4.1,2.7-10.4,5.5-19.8,5.3c-8.1,1.2-13.3-0.9-16.5-2.9c-5.8-3.6-6.1-7.5-13.7-13.5c-4.2-3.6-9.1-6.2-14.4-7.8
	c-2.9-0.8-11.3-3-20.1,1s-9.4,10-18.7,17.2c-5.8,4.5-12.7,7.6-19.9,8.9C129,283.6,147.9,215.5,166.9,147.4z"/>
<path class="st0" d="M223.4,125.5h213c-0.9-11.5-4.6-41.2-23.9-68.1c-28-38.9-67.1-41.7-74.1-42c0.4-9-3.9-15.3-7.2-15.4
	s-7.9,6.1-7.7,15.4c-8.9,0.6-38.8,4.1-65.4,32.6C230.2,77.8,224.6,115.3,223.4,125.5z"/>
<ellipse class="st1" cx="368.2" cy="62.8" rx="20.1" ry="24"/>
<path class="st0" d="M230.3,95.4L125.1,78.7l112,0.2"/>
<path class="st0" d="M263.3,42.7l-45.2-9h56.1"/>
<polyline class="st0" points="148.2,214.5 46.6,201.9 152.8,201.9 "/>
<polyline class="st0" points="135.1,261.5 0,261.5 131.4,274.9 "/>
<ellipse class="st0" cx="172.9" cy="364.9" rx="17.1" ry="20.4"/>
<ellipse class="st0" cx="357.9" cy="364.9" rx="17.1" ry="20.4"/>
<path class="st2" d="M187.9,186.9l-0.5,0.1c44.3-0.3,82.4-1.7,112.7-3.2c45.2-2.3,69.3-4.7,98.2-11.3c15.3-3.5,30.5-7.9,45.3-13
	c-2.2,7.8-5.5,15.3-9.7,22.3c-7.6,12.7-18.8,23-32.2,29.4c-3.6,1.7-14.1,8.2-29.1,12.4c-13.7,3.8-28,5.1-42.2,3.8
	c15.9-3.1,31.2-8.5,45.6-16c7.6-3.9,14.9-8.4,21.8-13.4l25.2-22.7c-29.1,8.1-58.8,13.8-88.9,16.9c-45.6,4.7-91.6,3.5-136.9-3.7
	L187.9,186.9z"/>
<polygon class="st3" points="400.8,309.1 172.3,295.5 172.6,286.6 401.2,300.3 "/>
</svg>
