<svg id="Layer_2" data-name="Layer 2" xmlns="http://www.w3.org/2000/svg" viewBox="0 0 498.45 367.33"><defs><style>.cls-1{fill:#d78228;}.cls-2,.cls-4{fill:#fff;}.cls-3{fill:#050606;opacity:0.12;}.cls-4{opacity:0;}</style></defs><path class="cls-1" d="M183.27,383.52h324L449.54,575.78,430,574.48c-1.27-2-15.3-23.77-35.8-23.55-3.08,0-12.06.13-19.59,6.43-4.29,3.59-4.82,6.44-8.28,10.16-4,4.31-11.15,8.9-24.8,9.17-11.26-.33-18.53-3.84-23.16-7.1-5-3.53-5.43-5.71-11.91-10.16-5.29-3.63-11.37-7.81-19.5-8.09-7.85-.27-13.83,3.23-17.94,5.64-8.61,5-9.35,9.2-16.56,13.55-4.27,2.58-10.87,5.26-20.66,5-8.47,1.1-14-.89-17.3-2.77-6.05-3.4-6.33-7.1-14.28-12.89a42.36,42.36,0,0,0-15.05-7.43c-3-.76-11.83-2.82-21,.94s-9.81,9.51-19.54,16.37a51,51,0,0,1-20.83,8.46Z" transform="translate(-8.84 -242.98)"/><path class="cls-1" d="M242.28,362.64H464.85c-1-11-4.77-39.28-25-64.91-29.27-37.05-70.08-39.73-77.47-40.07.41-8.62-4.1-14.6-7.5-14.67s-8.3,5.83-8,14.67a108.59,108.59,0,0,0-68.32,31C249.37,317.18,243.56,352.89,242.28,362.64Z" transform="translate(-8.84 -242.98)"/><ellipse class="cls-2" cx="384.76" cy="59.83" rx="20.96" ry="22.86"/><path class="cls-1" d="M249.49,333.9l-110-15.85,117,.18" transform="translate(-8.84 -242.98)"/><path class="cls-1" d="M283.93,283.74l-47.22-8.58h58.61" transform="translate(-8.84 -242.98)"/><polyline class="cls-1" points="154.89 204.46 48.66 192.46 159.68 192.46"/><polyline class="cls-1" points="141.18 249.33 0 249.33 137.29 262.03"/><ellipse class="cls-1" cx="180.64" cy="347.86" rx="17.86" ry="19.47"/><ellipse class="cls-1" cx="373.97" cy="347.86" rx="17.86" ry="19.47"/><path class="cls-3" d="M205.22,421.11l-.54.06c46.27-.29,86.05-1.59,117.71-3,47.22-2.17,72.37-4.47,102.6-10.8,19.93-4.17,36.22-8.87,47.36-12.38a82.65,82.65,0,0,1-10.17,21.23,77.72,77.72,0,0,1-33.67,28.06c-3.78,1.64-14.72,7.84-30.46,11.83A135,135,0,0,1,354,459.71a188,188,0,0,0,47.62-15.25A195,195,0,0,0,424.4,431.7l26.32-21.64a607.49,607.49,0,0,1-92.9,16.13,604.42,604.42,0,0,1-143.06-3.54Z" transform="translate(-8.84 -242.98)"/><polygon class="cls-4" points="418.82 294.71 179.98 281.72 180.37 273.27 419.21 286.26 418.82 294.71"/></svg>